<?xml version="1.0" standalone="no"?>
<!DOCTYPE svg PUBLIC "-//W3C//DTD SVG 20010904//EN"
 "http://www.w3.org/TR/2001/REC-SVG-20010904/DTD/svg10.dtd">
<svg version="1.0" xmlns="http://www.w3.org/2000/svg"
 width="500.000000pt" height="500.000000pt" viewBox="0 0 500.000000 500.000000"
 preserveAspectRatio="xMidYMid meet">

<g transform="translate(0.000000,500.000000) scale(0.100000,-0.100000)"
fill="#000000" stroke="none">
<path d="M2654 4535 c5 -15 4 -16 -9 -5 -14 11 -20 9 -42 -13 -22 -22 -24 -28
-13 -42 7 -8 10 -18 6 -22 -3 -3 -6 -1 -6 5 0 7 -4 12 -10 12 -5 0 -10 -14
-10 -31 0 -71 68 -124 138 -108 81 18 104 95 56 187 -1 1 -12 -1 -25 -6 -13
-5 -33 -6 -44 -1 l-20 8 20 1 c11 1 29 1 40 0 41 -4 -2 21 -45 27 -39 5 -43 4
-36 -12z m-24 -91 c0 -8 -5 -12 -10 -9 -6 4 -8 11 -5 16 9 14 15 11 15 -7z
m40 -64 c0 -5 -2 -10 -4 -10 -3 0 -8 5 -11 10 -3 6 -1 10 4 10 6 0 11 -4 11
-10z m-5 -32 c6 -4 2 -8 -7 -8 -10 0 -18 7 -18 17 0 9 3 12 8 7 4 -5 12 -12
17 -16z"/>
<path d="M2439 4509 c-50 -50 7 -119 75 -93 9 3 13 10 10 15 -3 5 0 9 5 9 16
0 13 42 -4 67 -18 26 -61 27 -86 2z m61 -15 c0 -8 -5 -12 -11 -9 -6 4 -10 1
-8 -6 3 -27 -1 -35 -22 -36 -21 -2 -21 -1 -3 19 11 12 14 18 8 15 -7 -4 -14
-1 -17 7 -4 9 0 12 13 9 10 -3 21 0 24 6 10 15 16 14 16 -5z"/>
<path d="M2831 4514 l-24 -17 24 -14 c23 -13 23 -14 2 -8 -29 8 -31 -15 -5
-38 25 -23 68 -21 85 3 18 26 10 67 -14 81 -22 11 -43 3 -33 -13 4 -7 2 -8 -5
-4 -6 4 -9 12 -6 17 9 13 3 11 -24 -7z"/>
<path d="M2308 4506 c-20 -15 -24 -31 -5 -20 8 6 8 3 -2 -9 -19 -23 -9 -42 24
-45 51 -4 73 39 37 71 -22 20 -31 21 -54 3z m34 -31 c0 -5 -5 -11 -10 -13 -5
-1 -9 4 -9 13 0 9 4 14 9 13 5 -2 10 -8 10 -13z"/>
<path d="M2120 4473 c-22 -29 -23 -70 -1 -65 9 2 11 -3 7 -15 -4 -9 -4 -14 0
-11 3 4 13 0 22 -8 31 -31 102 11 102 61 0 23 -32 60 -43 48 -4 -3 -7 -1 -7 5
0 24 -58 13 -80 -15z m60 -17 c0 5 12 10 28 10 15 1 21 -1 14 -3 -6 -3 -10 -8
-7 -13 3 -4 -2 -10 -10 -14 -8 -3 -15 -1 -15 4 0 5 -9 7 -20 5 -11 -2 -19 -1
-19 3 3 21 -2 32 -13 26 -7 -5 -8 -3 -3 6 6 10 12 8 27 -9 10 -13 18 -19 18
-15z m-5 -36 c3 -5 2 -10 -3 -10 -6 0 -8 -10 -5 -22 4 -22 4 -21 -10 2 -14 25
-13 40 3 40 5 0 12 -4 15 -10z m60 0 c3 -5 2 -10 -4 -10 -5 0 -13 5 -16 10 -3
6 -2 10 4 10 5 0 13 -4 16 -10z"/>
<path d="M2992 4484 c-32 -22 -29 -62 5 -75 38 -14 55 -8 66 25 8 25 7 32 -13
48 -27 22 -30 22 -58 2z m22 -12 c3 -5 -1 -9 -9 -9 -8 0 -12 4 -9 9 3 4 7 8 9
8 2 0 6 -4 9 -8z"/>
<path d="M1930 4460 c-41 -24 -59 -53 -60 -98 0 -40 17 -75 32 -66 6 4 8 3 4
-4 -9 -16 34 -42 69 -42 37 0 81 22 77 39 -1 7 2 10 7 6 15 -8 31 29 31 70 0
46 -36 101 -55 85 -10 -8 -15 -8 -21 1 -4 8 -3 9 4 5 7 -4 12 -2 12 3 0 6 -6
11 -12 11 -7 0 -22 2 -33 5 -11 2 -36 -4 -55 -15z m-6 -62 c-3 -4 -9 -8 -15
-8 -5 0 -9 4 -9 8 0 5 7 9 15 9 8 0 12 -4 9 -9z m-31 -28 c3 -11 1 -20 -4 -20
-5 0 -9 9 -9 20 0 11 2 20 4 20 2 0 6 -9 9 -20z m184 -5 c0 -8 -3 -13 -5 -10
-3 3 -12 -1 -21 -7 -10 -8 -9 -4 3 10 23 26 23 26 23 7z m-46 -68 c-13 -13
-26 -3 -16 12 3 6 11 8 17 5 6 -4 6 -10 -1 -17z"/>
<path d="M3131 4427 c-109 -56 -66 -225 56 -215 21 2 37 8 36 14 -1 7 5 11 15
10 9 0 16 5 14 12 -1 8 2 11 7 7 6 -3 15 3 20 14 13 23 15 91 3 91 -5 0 -16 6
-27 13 -14 11 -15 16 -5 22 8 5 11 4 7 -2 -4 -6 0 -14 8 -17 33 -12 -7 36 -40
50 -42 17 -63 17 -94 1z m27 -8 c-10 -5 -18 -17 -18 -26 0 -14 -2 -15 -12 -4
-11 10 -9 15 6 27 11 8 25 14 30 14 6 0 3 -5 -6 -11z"/>
<path d="M2913 4399 c-27 -10 -53 -47 -53 -75 0 -31 36 -71 69 -79 69 -15 117
70 71 127 -22 28 -56 39 -87 27z"/>
<path d="M1735 4376 c-22 -33 -10 -71 25 -86 34 -14 75 2 66 26 -3 9 -1 12 5
9 14 -9 6 39 -10 59 -21 25 -68 20 -86 -8z m69 2 c-3 -4 3 -8 13 -9 11 0 13
-3 5 -6 -6 -2 -10 -9 -6 -14 3 -5 0 -9 -6 -9 -7 0 -10 -7 -6 -15 4 -11 -1 -15
-17 -15 -16 0 -18 3 -8 9 8 5 10 14 6 21 -5 9 -4 11 3 6 7 -4 12 -1 12 8 0 19
-17 30 -25 16 -3 -5 -12 -10 -18 -10 -17 1 19 27 37 27 8 0 13 -4 10 -9z m-44
-32 c0 -2 -7 -6 -15 -10 -8 -3 -15 -1 -15 4 0 6 7 10 15 10 8 0 15 -2 15 -4z"/>
<path d="M2351 4374 c-25 -32 -26 -43 -5 -72 24 -34 75 -30 97 8 15 24 16 34
6 52 -24 46 -67 51 -98 12z"/>
<path d="M2802 4373 c2 -10 10 -18 18 -18 22 0 18 29 -3 33 -14 3 -18 -1 -15
-15z"/>
<path d="M2257 4374 c-12 -13 -8 -42 8 -48 25 -9 46 5 43 28 -3 21 -37 34 -51
20z"/>
<path d="M1651 4337 c-17 -17 -13 -35 8 -47 21 -11 33 -1 38 31 3 20 -31 31
-46 16z m34 -27 c3 -5 1 -10 -4 -10 -6 0 -11 5 -11 10 0 6 2 10 4 10 3 0 8 -4
11 -10z"/>
<path d="M2512 4334 c-30 -20 -30 -77 -1 -97 23 -16 58 -11 66 9 3 8 9 11 14
8 14 -8 11 62 -3 74 -25 19 -54 22 -76 6z"/>
<path d="M2166 4318 c5 -8 2 -9 -10 -5 -22 9 -69 -22 -62 -40 3 -8 2 -11 -4
-8 -14 9 -23 -57 -11 -85 17 -41 37 -60 72 -71 46 -13 81 -4 113 30 44 46 42
115 -4 161 -22 22 -46 27 -34 8 6 -9 3 -9 -9 0 -9 8 -22 10 -28 6 -8 -4 -9 -3
-5 4 4 7 1 12 -9 12 -10 0 -13 -5 -9 -12z m34 -28 c0 -5 -5 -10 -11 -10 -5 0
-7 5 -4 10 3 6 8 10 11 10 2 0 4 -4 4 -10z m-86 -84 c-3 -9 -10 -16 -15 -16
-5 0 -4 9 3 20 14 22 21 20 12 -4z m161 5 c3 -5 2 -12 -3 -15 -5 -3 -9 1 -9 9
0 17 3 19 12 6z m-75 -31 c0 -5 -5 -10 -11 -10 -5 0 -7 5 -4 10 3 6 8 10 11
10 2 0 4 -4 4 -10z m-25 -30 c3 -5 -1 -10 -10 -10 -9 0 -13 5 -10 10 3 6 8 10
10 10 2 0 7 -4 10 -10z"/>
<path d="M3362 4314 c-41 -28 -18 -104 31 -104 25 0 57 36 57 64 0 24 -32 56
-55 56 -6 0 -21 -7 -33 -16z"/>
<path d="M1575 4311 c-3 -5 -1 -12 5 -16 5 -3 10 1 10 9 0 18 -6 21 -15 7z"/>
<path d="M2764 4310 c-41 -16 -38 -67 6 -90 30 -16 73 29 61 62 -4 13 -15 23
-22 23 -8 0 -16 3 -19 6 -3 4 -14 3 -26 -1z m47 -53 c-10 -9 -11 -8 -5 6 3 10
9 15 12 12 3 -3 0 -11 -7 -18z"/>
<path d="M1546 4294 c-11 -29 -6 -53 14 -64 27 -14 63 -3 56 16 -3 9 -1 12 4
9 6 -3 10 3 10 13 0 24 -29 37 -36 17 -4 -8 -10 -15 -16 -15 -5 0 -7 4 -4 9 3
5 0 14 -8 20 -11 9 -15 8 -20 -5z"/>
<path d="M2650 4283 c0 -8 7 -13 18 -11 9 2 17 7 17 12 0 5 -8 10 -17 12 -10
1 -18 -4 -18 -13z"/>
<path d="M1816 4254 c-21 -20 -20 -30 4 -54 24 -24 63 -14 68 19 7 45 -40 67
-72 35z m54 -34 c0 -5 -2 -10 -4 -10 -3 0 -8 5 -11 10 -3 6 -1 10 4 10 6 0 11
-4 11 -10z"/>
<path d="M2358 4244 c-15 -8 -31 -26 -34 -41 -9 -35 8 -78 29 -77 9 1 14 -2
11 -7 -3 -5 10 -9 29 -9 52 0 85 48 67 96 -6 16 -14 23 -22 18 -7 -4 -10 -4
-6 1 11 11 -11 35 -31 35 -9 -1 -28 -7 -43 -16z"/>
<path d="M3016 4244 c-20 -19 -20 -29 0 -48 11 -12 20 -13 34 -6 29 16 33 30
14 51 -21 23 -28 24 -48 3z"/>
<path d="M1680 4239 c0 -5 -4 -8 -9 -5 -15 9 -28 -17 -30 -61 -1 -34 3 -45 25
-62 34 -27 64 -27 98 0 57 45 19 139 -55 139 -16 0 -29 -5 -29 -11z m74 -32
c4 4 4 0 1 -10 -6 -14 -9 -14 -21 -2 -18 17 -18 31 -1 16 8 -6 17 -8 21 -4z
m-47 -3 c-3 -3 -12 -4 -19 -1 -8 3 -5 6 6 6 11 1 17 -2 13 -5z m-9 -59 c-3 -3
-9 2 -12 12 -6 14 -5 15 5 6 7 -7 10 -15 7 -18z"/>
<path d="M2639 4236 c-13 -6 -30 -25 -38 -41 -12 -25 -12 -32 0 -54 44 -77
159 -21 129 63 -10 28 -62 47 -91 32z"/>
<path d="M1430 4229 c0 -5 5 -7 10 -4 6 3 13 -1 16 -9 3 -9 10 -13 15 -10 5 3
6 -2 3 -10 -7 -19 -24 -11 -25 12 0 11 -2 13 -6 4 -4 -10 -8 -9 -17 4 -15 20
-38 10 -29 -13 5 -12 2 -15 -9 -11 -11 5 -18 -4 -26 -29 -11 -36 -7 -63 10
-63 6 0 8 -7 5 -15 -10 -24 38 -53 88 -53 65 0 105 39 105 101 0 67 -36 107
-96 107 -24 0 -44 -5 -44 -11z m4 -54 c3 -8 1 -15 -4 -15 -6 0 -10 5 -10 12 0
6 -7 3 -16 -8 -14 -18 -15 -18 -4 4 12 26 25 28 34 7z m101 -14 c9 -16 -9 -20
-23 -5 -10 12 -10 14 2 14 8 0 17 -4 21 -9z"/>
<path d="M1953 4222 c-41 -6 -66 -67 -47 -117 15 -38 115 -52 106 -14 -2 8 0
11 4 7 13 -14 34 14 34 46 -1 52 -44 87 -97 78z m11 -98 c3 -8 2 -12 -4 -9 -6
3 -10 10 -10 16 0 14 7 11 14 -7z"/>
<path d="M3286 4223 c-4 -5 -13 -8 -19 -8 -7 0 -11 -8 -11 -18 1 -9 -2 -14 -7
-12 -4 3 -7 -4 -6 -15 1 -11 5 -20 10 -20 4 0 5 -4 2 -10 -9 -15 41 -23 65
-10 16 8 20 19 18 42 -3 31 -38 65 -52 51z"/>
<path d="M2887 4213 c-9 -2 -15 -8 -12 -13 3 -4 -3 -7 -13 -6 -9 0 -16 -5 -14
-11 1 -7 -3 -12 -10 -10 -16 3 -38 -42 -38 -78 0 -35 26 -78 42 -69 6 4 8 2 5
-3 -19 -31 80 -49 128 -23 33 18 55 59 55 103 0 65 -81 128 -143 110z"/>
<path d="M3520 4207 c-14 -7 -33 -29 -44 -50 -51 -106 62 -211 158 -148 52 35
71 98 45 155 -22 47 -105 70 -159 43z"/>
<path d="M2512 4198 c-16 -16 -15 -30 1 -52 11 -15 17 -17 35 -7 26 14 28 34
6 55 -19 19 -26 20 -42 4z"/>
<path d="M3103 4168 c-41 -46 -36 -103 12 -134 23 -15 28 -15 36 -3 7 12 9 12
9 -1 0 -9 3 -11 8 -5 4 6 13 10 20 11 26 2 30 5 42 33 15 38 5 87 -23 106 -32
22 -80 19 -104 -7z"/>
<path d="M3384 4175 c-8 -21 2 -45 19 -45 20 0 40 27 33 45 -7 19 -45 20 -52
0z"/>
<path d="M1827 4163 c-13 -12 -7 -33 8 -33 8 0 15 9 15 20 0 20 -11 26 -23 13z"/>
<path d="M2757 4163 c-4 -3 -7 -10 -7 -14 0 -11 29 -19 35 -10 6 11 -20 33
-28 24z"/>
<path d="M1275 4140 c4 -6 12 -7 18 -4 7 4 9 3 4 -1 -12 -14 -49 -17 -41 -3 4
6 3 8 -4 4 -6 -3 -9 -20 -8 -38 3 -39 33 -54 65 -32 26 19 27 45 3 67 -20 19
-47 23 -37 7z m42 -45 c-4 -8 -17 -14 -29 -14 l-23 2 23 4 c12 2 22 12 22 20
0 9 3 14 6 10 4 -3 4 -13 1 -22z"/>
<path d="M2448 4113 c-22 -6 -51 -50 -42 -65 4 -6 3 -8 -4 -4 -16 10 -25 -49
-11 -76 25 -50 61 -78 99 -78 43 0 106 38 104 63 -1 9 2 17 7 17 5 0 9 19 9
41 0 35 -6 47 -36 75 -35 34 -72 41 -126 27z"/>
<path d="M1782 4098 c-22 -22 -14 -57 18 -76 l30 -19 -23 -12 c-55 -29 -72
-117 -34 -175 25 -38 83 -52 131 -32 24 10 35 20 30 27 -4 8 -3 9 4 5 16 -9
32 26 32 69 0 67 -45 115 -106 115 -14 0 -24 3 -22 8 2 4 10 19 17 34 13 25
12 30 -4 48 -20 22 -55 26 -73 8z m45 -13 c0 -8 -4 -12 -9 -9 -5 3 -6 10 -3
15 9 13 12 11 12 -6z m26 -40 c-7 -21 -12 -19 -10 4 0 11 5 18 9 15 4 -3 5
-11 1 -19z"/>
<path d="M3372 4101 c-8 -4 -12 -19 -10 -32 2 -19 9 -24 33 -24 24 0 31 5 33
24 4 23 -11 41 -33 41 -5 0 -16 -4 -23 -9z"/>
<path d="M1597 4088 c-9 -5 -17 -14 -17 -19 0 -6 4 -8 9 -4 5 3 12 1 16 -5 3
-5 0 -10 -7 -10 -10 0 -10 -2 1 -9 21 -14 41 -2 41 24 0 27 -19 37 -43 23z"/>
<path d="M3261 4086 c-9 -10 -7 -16 5 -27 13 -10 17 -10 24 1 9 14 3 40 -10
40 -4 0 -13 -6 -19 -14z"/>
<path d="M2244 4080 c-30 -12 -50 -65 -37 -98 5 -15 15 -26 22 -24 7 1 10 -2
7 -7 -9 -14 50 -24 72 -12 61 32 64 113 5 140 -28 13 -40 13 -69 1z"/>
<path d="M2662 4067 c-31 -32 -29 -87 2 -116 14 -13 29 -20 35 -16 6 3 11 2
11 -4 0 -18 58 9 74 34 53 81 -57 172 -122 102z m113 -8 c11 -17 -1 -21 -15
-4 -8 9 -8 15 -2 15 6 0 14 -5 17 -11z"/>
<path d="M2127 4074 c-8 -8 1 -24 14 -24 5 0 9 7 9 15 0 15 -12 20 -23 9z"/>
<path d="M3712 4054 c-29 -20 -30 -83 -3 -108 11 -10 25 -15 30 -11 6 3 11 2
11 -4 0 -14 38 -5 57 15 34 33 11 131 -24 103 -10 -9 -12 -9 -8 2 8 20 -36 22
-63 3z"/>
<path d="M1673 4045 c-31 -22 -18 -69 21 -73 49 -6 74 38 40 72 -19 20 -34 20
-61 1z"/>
<path d="M1925 4040 c-7 -12 3 -50 13 -50 18 1 34 19 30 36 -4 21 -33 31 -43
14z"/>
<path d="M2041 4034 c-35 -15 -49 -43 -43 -86 5 -35 38 -59 82 -60 62 -2 100
74 61 123 -25 32 -59 40 -100 23z m50 -11 c13 -16 12 -17 -3 -4 -10 7 -18 15
-18 17 0 8 8 3 21 -13z m-16 -83 c3 -5 1 -10 -4 -10 -6 0 -11 5 -11 10 0 6 2
10 4 10 3 0 8 -4 11 -10z"/>
<path d="M1237 4009 c-30 -26 -36 -37 -36 -72 0 -58 17 -95 50 -112 36 -19 93
-19 109 0 9 10 9 15 1 15 -6 0 -11 5 -11 11 0 8 6 7 16 -2 14 -11 19 -10 35
10 38 47 19 127 -37 157 -30 16 -37 17 -57 5 -20 -13 -21 -13 -8 2 25 31 -22
20 -62 -14z m83 -94 c7 -8 8 -15 2 -15 -5 0 -15 7 -22 15 -7 8 -8 15 -2 15 5
0 15 -7 22 -15z m90 -7 c0 -4 -4 -8 -9 -8 -6 0 -12 4 -15 8 -3 5 1 9 9 9 8 0
15 -4 15 -9z"/>
<path d="M3270 4033 c-8 -3 -27 -19 -42 -34 -23 -24 -28 -38 -28 -79 0 -42 5
-55 29 -81 54 -56 146 -42 180 28 20 40 25 41 41 3 15 -37 67 -51 104 -27 30
20 35 93 8 114 -37 27 -97 12 -119 -30 -8 -16 -11 -12 -21 20 -6 22 -22 49
-34 61 -24 22 -91 36 -118 25z"/>
<path d="M1131 4008 c-15 -24 -6 -38 25 -38 19 0 24 5 24 24 0 31 -32 40 -49
14z"/>
<path d="M1505 3985 c-33 -32 -32 -70 4 -105 34 -34 82 -34 112 1 66 76 -45
176 -116 104z m115 -65 c0 -11 -4 -20 -9 -20 -5 0 -7 9 -4 20 3 11 7 20 9 20
2 0 4 -9 4 -20z"/>
<path d="M2989 3977 c-19 -15 -39 -50 -39 -71 0 -25 43 -64 77 -71 69 -14 113
84 60 133 -26 24 -73 28 -98 9z"/>
<path d="M3127 3983 c-13 -12 -7 -41 10 -47 21 -8 48 17 40 38 -6 16 -38 22
-50 9z"/>
<path d="M3612 3968 c-18 -18 -14 -46 9 -58 16 -9 25 -8 40 6 23 21 24 28 3
48 -19 19 -36 20 -52 4z"/>
<path d="M3860 3965 c-18 -21 -3 -55 25 -55 15 0 26 7 30 20 7 23 -10 50 -30
50 -7 0 -18 -7 -25 -15z"/>
<path d="M2828 3959 c-28 -16 -23 -65 8 -86 31 -20 54 -10 68 30 17 46 -32 82
-76 56z"/>
<path d="M1043 3932 c-12 -9 -22 -26 -23 -37 -4 -37 0 -56 10 -50 6 3 7 -1 4
-9 -8 -20 32 -36 69 -29 54 11 72 99 24 124 -18 10 -19 9 -13 -17 5 -21 4 -25
-4 -14 -5 8 -10 23 -10 33 0 22 -28 22 -57 -1z m41 0 c3 -5 -1 -9 -9 -9 -8 0
-15 4 -15 9 0 4 4 8 9 8 6 0 12 -4 15 -8z"/>
<path d="M2184 3925 c-4 -9 -2 -21 4 -27 15 -15 44 -1 40 19 -4 23 -36 29 -44
8z"/>
<path d="M1667 3924 c-4 -4 -7 -16 -7 -26 0 -15 6 -19 28 -16 19 2 27 9 27 23
0 20 -33 33 -48 19z"/>
<path d="M2286 3901 c-37 -40 13 -97 59 -67 18 12 23 22 19 43 -6 33 -3 30
-34 38 -19 4 -31 1 -44 -14z"/>
<path d="M3786 3905 c-3 -8 -3 -22 1 -31 8 -21 47 -14 51 10 6 31 -40 50 -52
21z"/>
<path d="M2590 3895 c0 -8 7 -15 15 -15 8 0 15 7 15 15 0 8 -7 15 -15 15 -8 0
-15 -7 -15 -15z"/>
<path d="M2668 3893 c-52 -33 -37 -135 22 -148 33 -7 69 6 94 33 22 25 16 80
-12 106 -28 24 -73 29 -104 9z"/>
<path d="M1436 3881 c-7 -11 18 -33 27 -24 4 3 7 12 7 20 0 15 -26 18 -34 4z"/>
<path d="M3134 3879 c-10 -17 13 -36 27 -22 12 12 4 33 -11 33 -5 0 -12 -5
-16 -11z"/>
<path d="M3651 3873 c-20 -10 -39 -30 -47 -50 -16 -38 -19 -97 -4 -88 5 3 7 0
4 -8 -3 -9 7 -26 23 -41 75 -69 207 1 188 101 -5 31 -8 33 -23 21 -15 -11 -15
-11 -4 3 24 31 -5 58 -78 74 -14 3 -40 -2 -59 -12z"/>
<path d="M3879 3883 c-1 -5 0 -12 1 -18 1 -5 -2 -7 -6 -3 -13 13 -34 -13 -34
-42 0 -41 50 -81 87 -71 16 4 28 14 28 22 1 8 6 13 13 12 8 -2 12 11 12 36 0
30 -6 44 -22 55 -23 16 -77 22 -79 9z"/>
<path d="M1997 3850 c-18 -26 -14 -40 13 -40 24 0 32 23 16 45 -12 17 -14 16
-29 -5z"/>
<path d="M2108 3861 c-57 -21 -78 -115 -38 -171 24 -33 87 -48 132 -31 33 13
68 65 68 103 0 37 -21 80 -36 74 -8 -3 -11 0 -8 9 8 19 -78 31 -118 16z"/>
<path d="M2410 3855 c-10 -12 -10 -18 0 -30 20 -24 50 -19 50 8 0 31 -10 40
-28 24 -13 -9 -14 -9 -8 1 10 17 1 15 -14 -3z"/>
<path d="M2512 3858 c-30 -30 -3 -83 39 -76 32 5 45 31 31 62 -13 28 -49 35
-70 14z"/>
<path d="M2870 3843 c-8 -3 -27 -17 -42 -31 -22 -21 -28 -35 -28 -70 0 -51 23
-96 57 -111 97 -44 199 55 154 150 -10 20 -24 33 -34 33 -9 -1 -14 2 -12 7 13
20 -57 36 -95 22z"/>
<path d="M1621 3814 c-26 -34 -27 -58 0 -85 22 -22 76 -23 72 -1 -2 6 2 11 8
10 7 -2 15 9 19 24 10 34 -12 64 -51 73 -21 5 -31 1 -48 -21z m43 -33 c3 -5
-3 -11 -14 -14 -20 -5 -26 3 -13 16 9 10 21 9 27 -2z"/>
<path d="M1475 3819 c-4 -5 -11 -7 -16 -4 -29 19 -99 -56 -77 -82 6 -7 15 -10
21 -6 6 3 7 1 3 -6 -6 -9 -11 -9 -22 0 -11 9 -14 7 -14 -11 0 -31 32 -81 48
-75 7 2 11 1 8 -4 -7 -11 18 -21 54 -21 86 0 135 82 96 158 -19 36 -89 72
-101 51z"/>
<path d="M1162 3807 c-17 -20 -3 -54 24 -60 26 -5 54 15 54 37 0 32 -57 49
-78 23z"/>
<path d="M3096 3799 c-47 -37 -28 -121 31 -132 31 -6 67 9 58 23 -3 6 0 7 8 4
14 -5 27 22 27 59 0 26 -45 67 -73 67 -13 0 -36 -9 -51 -21z m18 -65 c3 -8 2
-12 -4 -9 -6 3 -10 10 -10 16 0 14 7 11 14 -7z"/>
<path d="M906 3794 c-19 -18 -21 -55 -4 -72 16 -16 63 -15 76 1 10 12 9 58 -3
76 -9 16 -51 13 -69 -5z m34 -3 c0 -6 -4 -12 -8 -15 -5 -3 -9 1 -9 9 0 8 4 15
9 15 4 0 8 -4 8 -9z m26 -20 c-4 -6 -13 -11 -19 -11 -8 0 -7 3 2 9 8 5 10 14
6 22 -6 11 -5 11 5 2 7 -6 9 -16 6 -22z"/>
<path d="M2353 3792 c-30 -5 -63 -48 -63 -84 0 -41 40 -78 84 -78 26 0 40 7
60 31 14 17 26 39 26 50 0 48 -55 90 -107 81z"/>
<path d="M3405 3775 c-29 -28 -31 -45 -10 -85 13 -25 22 -30 53 -30 20 0 42 4
48 8 15 10 34 47 34 67 0 25 -46 65 -75 65 -14 0 -37 -11 -50 -25z"/>
<path d="M3540 3785 c0 -8 5 -15 10 -15 6 0 10 7 10 15 0 8 -4 15 -10 15 -5 0
-10 -7 -10 -15z"/>
<path d="M4002 3784 c-30 -21 -25 -54 10 -74 21 -11 32 -12 45 -4 24 15 28 58
8 78 -21 20 -35 20 -63 0z"/>
<path d="M1286 3772 c-8 -24 2 -52 18 -52 7 0 21 6 32 14 15 12 17 18 8 33
-16 26 -51 29 -58 5z"/>
<path d="M1035 3755 c-14 -16 -25 -37 -25 -47 0 -22 18 -60 34 -70 21 -14 66
-8 86 12 22 22 28 80 8 80 -6 0 -9 3 -5 6 9 10 -17 32 -46 39 -21 6 -32 1 -52
-20z"/>
<path d="M1754 3765 c-4 -9 -2 -21 4 -27 15 -15 44 -1 40 19 -4 23 -36 29 -44
8z"/>
<path d="M3272 3764 c-24 -17 -30 -62 -10 -82 19 -19 55 -14 72 10 21 30 20
44 -4 68 -24 24 -29 24 -58 4z"/>
<path d="M1906 3755 c-59 -59 10 -146 79 -101 32 21 36 89 6 106 -28 15 -67
12 -85 -5z"/>
<path d="M2484 3756 c-8 -22 3 -33 18 -18 9 9 9 15 0 24 -9 9 -13 7 -18 -6z"/>
<path d="M2595 3750 c-3 -4 -13 -6 -23 -3 -28 7 -70 -34 -82 -79 -21 -77 27
-138 110 -138 36 0 51 5 67 23 50 55 56 109 18 155 -26 31 -81 57 -90 42z"/>
<path d="M1197 3702 c-23 -25 -22 -85 1 -105 23 -21 61 -22 90 -1 28 20 31 83
4 107 -25 22 -75 21 -95 -1z m67 -18 c3 -8 2 -12 -4 -9 -6 3 -10 10 -10 16 0
14 7 11 14 -7z"/>
<path d="M3846 3699 c-36 -28 -36 -80 0 -108 15 -12 35 -21 46 -21 27 0 68 45
68 75 0 30 -41 75 -68 75 -11 0 -31 -9 -46 -21z"/>
<path d="M1760 3703 c-27 -11 -51 -47 -46 -68 3 -11 6 -25 6 -32 0 -7 10 -21
22 -33 67 -62 169 38 111 109 -19 22 -67 35 -93 24z"/>
<path d="M2727 3696 c-7 -17 18 -40 33 -31 5 3 10 15 10 26 0 23 -35 27 -43 5z"/>
<path d="M3540 3671 c-15 -28 -13 -39 11 -51 40 -22 73 36 35 62 -19 13 -35 9
-46 -11z"/>
<path d="M4034 3656 c-28 -28 -34 -42 -34 -76 0 -79 72 -135 141 -111 37 13
49 8 42 -18 -12 -47 69 -71 89 -25 15 33 2 56 -40 69 -27 8 -31 13 -25 30 16
43 8 103 -17 130 -13 14 -30 23 -37 21 -7 -3 -13 -1 -13 4 0 6 -16 10 -36 10
-28 0 -44 -8 -70 -34z"/>
<path d="M1612 3664 c-41 -29 -23 -84 28 -84 14 0 31 5 38 12 14 14 16 52 2
43 -5 -3 -7 0 -4 9 3 8 -3 19 -15 25 -25 14 -22 14 -49 -5z"/>
<path d="M2250 3665 c0 -9 5 -15 11 -13 6 2 11 8 11 13 0 5 -5 11 -11 13 -6 2
-11 -4 -11 -13z"/>
<path d="M808 3645 c-48 -44 -47 -126 3 -171 23 -21 24 -34 4 -34 -20 0 -32
-50 -14 -61 18 -11 30 -11 49 1 12 7 13 15 4 38 l-11 30 44 5 c44 5 109 50 97
68 -2 4 0 10 4 13 13 8 -2 81 -16 79 -7 -2 -11 0 -11 5 4 21 -4 31 -32 41 -52
18 -92 13 -121 -14z m57 -5 c3 -6 -1 -7 -9 -4 -18 7 -21 14 -7 14 6 0 13 -4
16 -10z m69 -55 c-4 -8 -8 -15 -10 -15 -2 0 -4 7 -4 15 0 8 4 15 10 15 5 0 7
-7 4 -15z"/>
<path d="M2742 3628 c-22 -22 -14 -67 14 -80 43 -20 81 21 63 70 -9 25 -56 31
-77 10z"/>
<path d="M2159 3601 c-16 -16 -30 -39 -30 -50 -1 -12 -2 -27 -3 -33 -7 -50 53
-108 111 -108 34 0 87 36 77 52 -4 7 -2 8 5 4 9 -6 23 29 23 59 0 61 -48 105
-115 105 -29 0 -46 -7 -68 -29z"/>
<path d="M3622 3613 c4 -22 43 -25 43 -3 0 8 -11 16 -23 18 -19 3 -23 0 -20
-15z"/>
<path d="M3723 3622 c-22 -14 -27 -61 -8 -82 34 -38 95 -13 95 38 0 40 -52 66
-87 44z"/>
<path d="M1015 3611 c-8 -15 3 -31 21 -31 9 0 14 7 12 17 -4 20 -24 28 -33 14z"/>
<path d="M1348 3609 c-27 -15 -24 -75 3 -90 27 -14 68 3 70 28 2 26 -2 47 -9
54 -14 14 -48 18 -64 8z"/>
<path d="M2345 3600 c-3 -5 -1 -10 4 -10 6 0 11 5 11 10 0 6 -2 10 -4 10 -3 0
-8 -4 -11 -10z"/>
<path d="M2380 3585 c-6 -8 -13 -29 -13 -47 -4 -70 104 -80 111 -9 2 21 -3 40
-14 52 -20 23 -67 25 -84 4z"/>
<path d="M1072 3579 c-14 -5 -20 -13 -16 -20 4 -8 3 -9 -4 -5 -19 12 -45 -53
-39 -98 6 -45 48 -91 74 -82 8 3 11 1 8 -4 -12 -20 51 -9 87 15 28 19 38 33
43 65 6 34 3 44 -12 56 -10 9 -12 13 -5 9 16 -8 15 6 -3 32 -9 12 -32 27 -53
33 -44 12 -50 12 -80 -1z"/>
<path d="M1482 3557 c-34 -36 -30 -90 8 -117 27 -19 34 -20 65 -10 39 13 55
35 55 78 0 63 -84 96 -128 49z"/>
<path d="M3945 3561 c-7 -12 12 -24 25 -16 11 7 4 25 -10 25 -5 0 -11 -4 -15
-9z"/>
<path d="M1253 3525 c0 -21 4 -25 21 -23 13 2 21 10 21 23 0 13 -8 21 -21 23
-17 2 -21 -2 -21 -23z"/>
<path d="M1662 3530 c-29 -27 -28 -55 3 -85 29 -30 49 -31 75 -5 56 56 -20
144 -78 90z"/>
<path d="M3817 3507 c-34 -27 -51 -87 -34 -126 31 -74 124 -96 177 -42 52 51
52 105 1 160 -24 26 -37 31 -73 31 -30 0 -52 -7 -71 -23z"/>
<path d="M703 3509 c-12 -12 -6 -39 11 -51 18 -12 47 12 44 35 -3 25 -37 34
-55 16z"/>
<path d="M2512 3508 c-14 -14 -16 -32 -2 -23 6 3 7 -1 4 -9 -5 -12 0 -16 19
-16 16 0 26 7 30 19 8 34 -27 53 -51 29z"/>
<path d="M2621 3496 c-16 -19 3 -56 28 -56 29 0 45 25 31 49 -12 24 -42 27
-59 7z"/>
<path d="M1307 3472 c-36 -40 -1 -97 50 -83 23 6 29 14 31 41 5 54 -47 80 -81
42z"/>
<path d="M3141 3471 c-17 -11 -7 -41 13 -41 22 0 30 20 15 36 -9 8 -19 10 -28
5z"/>
<path d="M3010 3447 c-49 -25 -52 -104 -5 -125 36 -17 48 -15 79 9 63 50 -2
152 -74 116z"/>
<path d="M2350 3436 c-27 -33 18 -72 48 -42 13 13 14 20 6 34 -15 23 -38 26
-54 8z"/>
<path d="M926 3424 c-10 -9 -15 -23 -12 -31 3 -8 6 -17 6 -19 0 -13 41 -1 49
15 8 14 6 22 -8 35 -17 16 -20 16 -35 0z"/>
<path d="M2457 3423 c-28 -31 -30 -66 -7 -96 47 -59 128 -18 121 61 -4 44 -83
68 -114 35z"/>
<path d="M4038 3426 c-25 -18 -24 -72 1 -86 29 -15 56 -12 74 8 23 26 21 58
-5 76 -27 19 -47 20 -70 2z"/>
<path d="M663 3420 c-43 -18 -57 -85 -27 -128 23 -34 95 -31 123 4 26 33 27
85 3 107 -23 21 -70 29 -99 17z m48 -53 c-10 -9 -11 -8 -5 6 3 10 9 15 12 12
3 -3 0 -11 -7 -18z m-54 -2 c0 -8 -4 -12 -9 -9 -5 3 -6 10 -3 15 9 13 12 11
12 -6z m73 -55 c0 -5 -4 -10 -9 -10 -6 0 -13 5 -16 10 -3 6 1 10 9 10 9 0 16
-4 16 -10z"/>
<path d="M3194 3420 c-56 -22 -82 -114 -48 -166 20 -29 63 -54 96 -54 33 0 85
34 102 68 17 32 12 83 -11 118 -24 37 -91 54 -139 34z"/>
<path d="M1585 3400 c-13 -40 38 -68 65 -35 20 24 8 48 -27 52 -25 3 -33 0
-38 -17z"/>
<path d="M2133 3403 c-18 -7 -16 -40 1 -46 19 -7 40 18 32 38 -6 15 -12 17
-33 8z"/>
<path d="M1402 3384 c-63 -44 -65 -124 -4 -174 51 -42 93 -39 150 13 17 16 22
31 22 73 0 46 -4 55 -31 78 -36 30 -101 35 -137 10z"/>
<path d="M1243 3383 c-7 -2 -13 -11 -13 -19 0 -10 5 -12 13 -8 9 6 9 5 0 -7
-17 -22 0 -41 33 -37 21 2 30 9 32 26 6 40 -26 61 -65 45z"/>
<path d="M4165 3376 c-16 -12 -17 -16 -6 -30 18 -22 38 -20 44 4 7 28 -15 43
-38 26z"/>
<path d="M2202 3364 c-13 -9 -21 -22 -18 -30 3 -8 1 -14 -4 -14 -13 0 -3 -40
16 -61 24 -26 78 -25 104 3 27 29 25 64 -5 93 -28 29 -61 32 -93 9z m68 -84
c0 -5 -5 -10 -11 -10 -5 0 -7 5 -4 10 3 6 8 10 11 10 2 0 4 -4 4 -10z"/>
<path d="M4236 3358 c-23 -32 -20 -65 9 -93 31 -32 59 -32 90 0 48 47 22 115
-45 115 -29 0 -43 -6 -54 -22z"/>
<path d="M2903 3354 c-8 -20 17 -36 34 -22 10 8 10 14 2 24 -15 18 -28 18 -36
-2z"/>
<path d="M3402 3361 c-8 -4 -12 -19 -10 -32 2 -18 9 -24 28 -24 21 0 25 5 25
30 0 31 -19 42 -43 26z"/>
<path d="M970 3350 c-14 -4 -24 -12 -22 -19 1 -7 -2 -10 -7 -6 -20 12 -32 -33
-21 -74 8 -32 17 -42 45 -51 62 -20 115 15 115 76 0 54 -51 89 -110 74z m60
-14 c0 -2 -7 -6 -15 -10 -8 -3 -15 -1 -15 4 0 6 7 10 15 10 8 0 15 -2 15 -4z"/>
<path d="M810 3335 c-17 -20 -5 -62 20 -70 28 -9 60 12 60 39 0 30 -10 39 -27
24 -11 -8 -12 -7 -7 6 8 21 -28 22 -46 1z"/>
<path d="M2350 3330 c0 -15 5 -20 18 -18 9 2 17 10 17 18 0 8 -8 16 -17 18
-13 2 -18 -3 -18 -18z"/>
<path d="M2083 3333 c-18 -7 -16 -62 2 -69 29 -11 65 5 65 29 0 38 -29 56 -67
40z"/>
<path d="M3969 3314 c-17 -21 0 -49 32 -49 27 0 37 28 19 50 -16 19 -34 19
-51 -1z"/>
<path d="M1127 3302 c-20 -22 -23 -92 -5 -110 15 -15 31 -16 22 0 -4 7 -3 8 5
4 6 -4 8 -12 5 -18 -13 -20 70 2 89 24 19 22 23 48 7 48 -5 0 -6 7 -3 17 5 12
3 14 -7 8 -9 -5 -11 -4 -6 4 23 37 -76 58 -107 23z"/>
<path d="M2905 3297 c-38 -17 -59 -42 -49 -58 4 -8 3 -9 -4 -5 -9 5 -12 -6
-12 -38 0 -36 6 -52 29 -78 26 -29 35 -33 81 -33 46 0 55 4 81 33 31 34 38 78
19 126 -18 50 -92 76 -145 53z"/>
<path d="M4077 3292 c-21 -23 -22 -51 -1 -80 31 -45 104 -17 104 40 0 51 -69
78 -103 40z"/>
<path d="M2345 3268 c-42 -33 -58 -78 -42 -125 38 -116 215 -96 222 24 5 72
-42 123 -113 123 -25 0 -49 -8 -67 -22z"/>
<path d="M3386 3259 c-36 -29 -36 -80 1 -109 70 -55 151 42 88 105 -30 30 -54
31 -89 4z"/>
<path d="M3872 3268 c-21 -21 -14 -54 14 -69 24 -12 28 -12 45 9 13 16 16 29
10 45 -9 25 -50 34 -69 15z"/>
<path d="M3074 3255 c-4 -9 -2 -21 4 -27 15 -15 44 -1 40 19 -4 23 -36 29 -44
8z"/>
<path d="M576 3241 c-13 -8 -29 -25 -35 -38 -13 -29 -14 -36 -2 -29 5 4 7 -3
4 -14 -6 -24 41 -70 73 -70 35 0 84 47 84 80 0 62 -71 103 -124 71z"/>
<path d="M4358 3238 c-8 -20 2 -38 21 -38 23 0 41 19 34 36 -6 17 -49 18 -55
2z"/>
<path d="M785 3226 c-57 -25 -81 -91 -53 -151 7 -15 17 -24 25 -21 8 3 11 2 8
-4 -8 -13 28 -30 65 -30 116 0 153 152 50 205 -35 18 -56 18 -95 1z m50 -6 c3
-6 -1 -7 -9 -4 -18 7 -21 14 -7 14 6 0 13 -4 16 -10z m35 -4 c0 -3 -4 -8 -10
-11 -5 -3 -10 -1 -10 4 0 6 5 11 10 11 6 0 10 -2 10 -4z m-80 -10 c0 -3 -4 -8
-10 -11 -5 -3 -10 -1 -10 4 0 6 5 11 10 11 6 0 10 -2 10 -4z"/>
<path d="M3993 3224 c-3 -8 -1 -20 5 -26 15 -15 43 8 35 28 -7 19 -32 18 -40
-2z"/>
<path d="M4205 3231 c-8 -15 3 -31 21 -31 9 0 14 7 12 17 -4 20 -24 28 -33 14z"/>
<path d="M2095 3218 c-31 -18 -40 -30 -53 -67 -13 -38 -7 -77 17 -105 24 -28
76 -47 110 -40 30 6 30 6 24 -29 -4 -29 -2 -36 16 -42 32 -10 61 3 61 29 0 27
-18 46 -42 46 -23 0 -23 6 2 32 40 43 35 122 -11 163 -23 22 -98 29 -124 13z"/>
<path d="M1292 3210 c-31 -13 -37 -35 -18 -65 16 -24 56 -35 56 -15 0 6 6 9
12 8 20 -4 21 42 2 63 -19 21 -20 21 -52 9z"/>
<path d="M3118 3185 c-47 -26 -51 -95 -8 -126 44 -31 65 -32 99 -3 77 65 -3
178 -91 129z"/>
<path d="M4259 3189 c-34 -12 -68 -75 -62 -114 9 -64 68 -112 124 -100 47 11
89 60 89 105 0 92 -66 140 -151 109z"/>
<path d="M4410 3175 c0 -8 9 -15 20 -15 13 0 18 5 14 15 -4 8 -12 15 -20 15
-8 0 -14 -7 -14 -15z"/>
<path d="M1052 3168 c-20 -20 -15 -66 9 -78 31 -17 72 -4 66 20 -3 11 -1 18 4
14 5 -3 9 2 9 11 0 9 -4 14 -9 11 -5 -3 -12 1 -15 10 -4 10 -2 13 6 8 7 -4 8
-3 4 4 -9 16 -59 15 -74 0z"/>
<path d="M3280 3159 c-9 -15 -8 -24 1 -35 28 -33 80 -3 59 35 -6 12 -19 21
-30 21 -11 0 -24 -9 -30 -21z"/>
<path d="M3995 3175 c-5 -2 -23 -6 -38 -9 -15 -4 -25 -11 -22 -16 3 -5 -1 -7
-9 -4 -23 9 -49 -61 -41 -108 4 -21 11 -38 16 -38 5 0 9 -6 9 -14 0 -25 92
-51 123 -34 80 42 89 142 20 203 -27 24 -37 27 -58 20z"/>
<path d="M1386 3163 c-3 -3 -6 -16 -6 -27 1 -21 1 -21 16 -1 16 19 16 19 9 -5
-7 -22 -6 -23 9 -11 9 7 16 17 16 22 0 12 -36 30 -44 22z"/>
<path d="M975 3149 c-10 -15 1 -23 20 -15 9 3 13 10 10 16 -8 13 -22 13 -30
-1z"/>
<path d="M4117 3153 c-14 -13 -6 -42 13 -48 27 -9 40 1 40 31 0 18 -5 24 -23
24 -13 0 -27 -3 -30 -7z"/>
<path d="M1632 3108 c-39 -39 19 -97 61 -60 32 28 15 72 -28 72 -12 0 -26 -5
-33 -12z"/>
<path d="M1152 3090 c-54 -33 -71 -105 -40 -163 23 -43 144 -69 131 -28 -4 13
-3 14 6 1 8 -12 13 -11 34 8 27 25 42 89 27 107 -6 7 -7 15 -3 18 9 9 -26 46
-59 63 -37 19 -57 18 -96 -6z"/>
<path d="M3440 3096 c-27 -33 18 -72 48 -42 13 13 14 20 6 34 -15 23 -38 26
-54 8z"/>
<path d="M506 3057 c-17 -17 -26 -37 -26 -57 0 -17 4 -29 8 -26 4 2 14 1 22
-5 13 -7 12 -9 -2 -9 -27 0 -21 -18 12 -35 40 -21 54 -19 89 11 57 48 33 129
-41 140 -30 5 -41 2 -62 -19z m66 -89 c-7 -7 -12 -8 -12 -2 0 14 12 26 19 19
2 -3 -1 -11 -7 -17z"/>
<path d="M958 3065 c-28 -16 -32 -27 -28 -75 2 -36 23 -52 66 -52 27 0 43 6
56 22 51 63 -23 144 -94 105z"/>
<path d="M2283 3073 c-18 -6 -16 -30 2 -37 9 -3 18 1 22 10 7 18 -7 33 -24 27z"/>
<path d="M2985 3050 c-14 -43 44 -67 68 -28 8 12 7 21 -2 32 -19 23 -58 20
-66 -4z"/>
<path d="M3272 3050 c-67 -41 -75 -126 -16 -181 20 -19 37 -24 76 -24 45 0 53
4 79 35 22 26 29 44 29 78 0 38 -5 50 -36 78 -42 40 -82 44 -132 14z"/>
<path d="M4444 3056 c-7 -19 3 -36 22 -36 10 0 14 8 12 22 -4 26 -26 36 -34
14z"/>
<path d="M667 3053 c-12 -11 -7 -33 8 -39 20 -8 45 13 38 32 -5 14 -34 19 -46
7z"/>
<path d="M2315 3005 c-32 -31 -32 -75 -2 -110 36 -42 106 -35 132 15 21 41 19
63 -10 94 -32 35 -86 36 -120 1z"/>
<path d="M4118 3009 c-24 -14 -24 -71 0 -92 42 -38 92 -12 92 47 0 49 -47 72
-92 45z"/>
<path d="M1557 2990 c-33 -26 -36 -67 -7 -98 25 -27 71 -29 93 -4 26 29 22 86
-7 101 -13 8 -29 11 -34 7 -6 -3 -12 -1 -14 5 -2 6 -15 2 -31 -11z"/>
<path d="M2011 2992 c-20 -38 1 -76 39 -70 33 5 47 31 32 62 -14 31 -56 36
-71 8z"/>
<path d="M3160 2995 c0 -8 7 -15 15 -15 8 0 15 7 15 15 0 8 -7 15 -15 15 -8 0
-15 -7 -15 -15z"/>
<path d="M833 2984 c-3 -8 1 -22 9 -30 12 -12 17 -12 33 -1 23 17 14 47 -15
47 -11 0 -23 -7 -27 -16z"/>
<path d="M4405 2988 c-42 -23 -47 -66 -13 -98 37 -34 73 -24 103 30 8 13 7 13
-11 0 -18 -14 -18 -14 1 9 l20 23 -28 24 c-31 27 -43 29 -72 12z"/>
<path d="M700 2971 c-15 -4 -24 -14 -24 -24 1 -9 -2 -15 -6 -12 -4 3 -11 -2
-14 -11 -29 -76 78 -142 134 -82 30 33 27 91 -6 117 -28 22 -42 24 -84 12z"/>
<path d="M3009 2949 c-29 -30 -31 -36 -27 -87 6 -71 37 -102 103 -102 58 0
101 35 110 90 10 62 -33 135 -67 113 -7 -3 -8 -1 -4 5 5 9 -7 12 -39 12 -38 0
-51 -5 -76 -31z"/>
<path d="M2117 2944 c-10 -10 -9 -42 2 -48 18 -11 42 6 39 28 -3 21 -28 33
-41 20z"/>
<path d="M4268 2929 c-22 -12 -24 -62 -4 -79 39 -32 100 23 72 65 -15 23 -44
29 -68 14z"/>
<path d="M4006 2915 c-35 -36 -12 -87 40 -87 38 0 58 44 36 79 -13 21 -58 26
-76 8z"/>
<path d="M848 2894 c-11 -23 -10 -29 11 -45 21 -17 26 -18 45 -6 41 27 27 77
-20 77 -17 0 -28 -9 -36 -26z"/>
<path d="M3858 2908 c-9 -7 -19 -27 -22 -44 -14 -63 57 -107 111 -69 53 37 24
125 -41 125 -18 0 -39 -6 -48 -12z"/>
<path d="M973 2879 c-18 -12 -34 -25 -34 -30 -3 -19 -5 -24 -12 -36 -4 -6 -5
-17 -3 -25 2 -7 7 -26 10 -41 13 -55 113 -87 164 -51 29 20 52 66 52 105 0 22
-10 41 -34 65 -41 41 -92 46 -143 13z"/>
<path d="M2164 2874 c-39 -59 -3 -134 63 -134 64 0 102 66 72 123 -17 31 -28
37 -76 37 -35 0 -46 -5 -59 -26z"/>
<path d="M489 2874 c-36 -23 -50 -49 -51 -93 -1 -63 53 -121 112 -121 31 0 75
25 94 54 9 14 16 45 16 69 0 35 -6 49 -29 71 -37 36 -103 45 -142 20z"/>
<path d="M1433 2860 c-43 -26 -59 -56 -41 -78 9 -11 10 -14 1 -8 -9 5 -13 -2
-13 -24 0 -44 56 -100 99 -100 64 0 121 55 121 116 0 35 -34 87 -66 100 -44
19 -63 18 -101 -6z"/>
<path d="M2000 2858 c-20 -22 -29 -85 -10 -73 6 3 7 -1 4 -9 -13 -33 80 -43
104 -13 23 29 22 64 -3 91 -29 32 -67 34 -95 4z"/>
<path d="M4131 2854 c-12 -15 -21 -32 -21 -39 0 -22 41 -65 61 -65 25 0 69 43
69 68 0 26 -37 62 -65 62 -14 0 -32 -11 -44 -26z"/>
<path d="M1201 2834 c-46 -58 -11 -134 61 -134 38 0 75 30 62 51 -4 7 -3 10 4
5 16 -10 20 26 5 56 -26 54 -97 66 -132 22z"/>
<path d="M1600 2834 c0 -9 7 -14 17 -12 25 5 28 28 4 28 -12 0 -21 -6 -21 -16z"/>
<path d="M4364 2839 c-33 -16 -58 -72 -50 -113 5 -27 11 -34 24 -30 14 5 14 4
2 -4 -12 -9 -12 -14 4 -31 10 -11 23 -18 27 -15 5 3 9 0 9 -5 0 -20 85 -12
113 9 44 34 52 89 24 148 -21 45 -101 66 -153 41z"/>
<path d="M2366 2821 c-14 -8 -33 -30 -41 -47 -17 -36 -20 -78 -5 -69 5 3 7 0
4 -8 -7 -19 45 -80 63 -73 8 3 11 1 8 -4 -4 -6 7 -10 25 -10 95 0 149 97 100
178 -31 51 -100 66 -154 33z"/>
<path d="M3314 2805 c-9 -23 3 -45 25 -45 21 0 33 22 25 45 -4 8 -15 15 -25
15 -11 0 -22 -7 -25 -15z"/>
<path d="M822 2798 c-19 -19 -15 -66 7 -78 33 -17 71 4 69 37 -1 15 -6 34 -11
41 -12 15 -49 16 -65 0z"/>
<path d="M3215 2790 c3 -5 0 -7 -8 -4 -39 14 -53 -68 -17 -98 32 -26 65 -22
90 9 35 45 8 103 -48 103 -13 0 -20 -4 -17 -10z"/>
<path d="M4015 2790 c-33 -13 -47 -36 -43 -72 2 -23 7 -32 18 -30 8 2 12 0 8
-4 -13 -12 13 -34 39 -34 30 0 73 42 73 72 0 35 -29 71 -51 65 -11 -3 -17 -1
-13 4 6 11 -4 11 -31 -1z"/>
<path d="M4255 2780 c-8 -14 3 -30 21 -30 8 0 14 9 14 20 0 21 -24 28 -35 10z"/>
<path d="M715 2756 c-43 -31 -22 -95 32 -96 40 0 59 71 26 96 -23 17 -35 17
-58 0z m45 0 c0 -3 -4 -8 -10 -11 -5 -3 -10 -1 -10 4 0 6 5 11 10 11 6 0 10
-2 10 -4z"/>
<path d="M3790 2759 c-90 -36 -104 -153 -25 -205 31 -21 107 -14 135 11 26 23
43 79 35 114 -13 59 -90 102 -145 80z"/>
<path d="M2891 2734 c-20 -26 -30 -91 -12 -80 5 3 8 -2 7 -12 0 -9 4 -16 11
-15 7 2 10 -4 7 -12 -5 -12 3 -15 35 -15 52 0 91 34 91 80 0 72 -96 109 -139
54z"/>
<path d="M2110 2722 c-33 -11 -69 -44 -79 -72 -6 -18 -6 -28 -1 -25 6 4 7 -6
4 -24 -8 -36 13 -71 28 -49 6 8 7 4 3 -11 -6 -20 -4 -23 9 -18 10 4 15 3 12
-2 -3 -5 1 -12 10 -15 26 -10 84 -7 84 5 0 5 4 8 9 5 10 -7 33 18 26 27 -3 4
-2 5 2 2 16 -12 33 21 33 65 0 39 -5 54 -29 79 -16 17 -35 32 -43 32 -7 1 -22
3 -33 4 -11 1 -27 0 -35 -3z m60 -202 c0 -5 -2 -10 -4 -10 -3 0 -8 5 -11 10
-3 6 -1 10 4 10 6 0 11 -4 11 -10z"/>
<path d="M3070 2715 c-26 -31 13 -82 44 -56 19 16 21 42 4 59 -16 16 -33 15
-48 -3z"/>
<path d="M2263 2704 c-8 -20 8 -36 26 -25 15 10 8 41 -9 41 -6 0 -13 -7 -17
-16z"/>
<path d="M2598 2704 c-53 -28 -64 -89 -23 -129 50 -51 135 -15 135 58 0 59
-62 98 -112 71z"/>
<path d="M2806 2694 c-4 -10 -2 -22 3 -27 14 -14 43 0 39 20 -4 24 -34 28 -42
7z"/>
<path d="M4190 2702 c0 -6 -7 -9 -15 -6 -9 4 -27 -7 -45 -26 -23 -25 -30 -41
-30 -72 0 -114 119 -167 196 -87 24 25 29 39 29 79 0 42 -5 54 -30 80 -32 31
-105 53 -105 32z"/>
<path d="M1175 2690 c-10 -17 12 -37 25 -24 8 8 6 15 -4 23 -10 9 -16 9 -21 1z"/>
<path d="M1952 2684 c-16 -29 -3 -54 29 -54 24 0 29 4 29 23 0 42 -40 63 -58
31z"/>
<path d="M860 2683 c-56 -21 -69 -92 -24 -137 52 -51 121 -24 131 51 5 35 2
45 -20 67 -25 25 -54 31 -87 19z m80 -108 c0 -2 -10 -10 -22 -16 -21 -11 -22
-11 -9 4 13 16 31 23 31 12z m-45 -35 c3 -5 -1 -10 -10 -10 -9 0 -13 5 -10 10
3 6 8 10 10 10 2 0 7 -4 10 -10z"/>
<path d="M2743 2683 c-15 -5 -17 -39 -4 -47 15 -9 39 4 37 20 -3 20 -19 32
-33 27z"/>
<path d="M1273 2663 c-36 -30 -39 -68 -9 -97 31 -32 69 -33 96 -4 23 25 27 80
7 97 -27 21 -72 24 -94 4z"/>
<path d="M1034 2626 c-26 -26 -34 -42 -34 -71 0 -71 45 -115 116 -115 51 0
104 53 104 105 0 41 -16 78 -31 70 -5 -4 -8 -1 -7 6 4 17 -40 39 -80 39 -25 0
-43 -9 -68 -34z m6 -40 c0 -3 -4 -8 -10 -11 -5 -3 -10 -1 -10 4 0 6 5 11 10
11 6 0 10 -2 10 -4z m125 -104 c-3 -3 -11 0 -18 7 -9 10 -8 11 6 5 10 -3 15
-9 12 -12z"/>
<path d="M570 2628 c-11 -12 -20 -30 -20 -39 0 -27 21 -67 37 -73 19 -8 35 2
27 16 -4 7 -2 8 4 4 6 -4 8 -14 5 -23 -6 -15 -2 -14 27 3 47 27 58 65 30 104
-27 38 -78 42 -110 8z"/>
<path d="M3042 2629 c-16 -6 -22 -17 -22 -37 0 -35 16 -52 52 -52 36 0 55 33
38 65 -15 27 -37 35 -68 24z"/>
<path d="M3647 2626 c-8 -20 20 -43 35 -28 14 14 3 42 -16 42 -7 0 -16 -6 -19
-14z"/>
<path d="M4515 2627 c-23 -17 -14 -47 15 -47 26 0 37 27 18 46 -12 12 -17 12
-33 1z"/>
<path d="M724 2615 c-4 -9 -2 -21 3 -26 14 -14 45 1 41 20 -4 22 -37 26 -44 6z"/>
<path d="M1442 2618 c-13 -7 -21 -17 -18 -25 3 -8 1 -11 -4 -8 -16 10 -23 -43
-10 -74 27 -66 125 -62 151 7 13 33 -13 89 -46 102 -32 12 -43 12 -73 -2z"/>
<path d="M1904 2615 c-7 -18 3 -35 21 -35 21 0 28 19 15 35 -16 19 -29 19 -36
0z"/>
<path d="M3980 2615 c-20 -25 5 -66 34 -56 25 10 32 36 16 56 -16 19 -34 19
-50 0z"/>
<path d="M2280 2595 c0 -20 5 -25 24 -25 14 0 27 4 30 9 11 18 -6 41 -30 41
-19 0 -24 -5 -24 -25z"/>
<path d="M2793 2609 c-46 -13 -73 -53 -73 -106 0 -38 5 -50 34 -79 29 -29 41
-34 80 -34 25 0 46 5 46 10 0 6 7 10 15 10 22 0 58 77 50 109 -9 37 -34 73
-46 66 -5 -4 -8 -1 -7 7 2 8 -7 13 -24 13 -14 -1 -24 3 -22 7 6 10 -12 9 -53
-3z"/>
<path d="M422 2602 c-7 -2 -10 -8 -7 -13 4 -5 -2 -6 -11 -2 -14 5 -16 3 -11
-11 4 -9 3 -15 -2 -12 -5 3 -11 -5 -13 -19 -3 -14 -1 -25 3 -25 5 0 9 -8 9
-19 0 -25 23 -42 58 -43 35 -1 55 9 46 24 -4 6 -2 8 3 5 15 -10 31 14 31 45
-1 43 -63 85 -106 70z"/>
<path d="M3316 2598 c3 -5 10 -6 15 -3 13 9 11 12 -6 12 -8 0 -12 -4 -9 -9z"/>
<path d="M2447 2594 c-4 -4 -7 -16 -7 -26 0 -13 7 -18 26 -18 21 0 25 4 22 22
-3 23 -27 35 -41 22z"/>
<path d="M4368 2580 c-26 -20 -40 -62 -31 -87 3 -7 9 -10 14 -7 5 3 6 -1 3 -9
-15 -39 91 -57 125 -22 10 11 22 35 26 52 6 28 2 38 -23 63 -36 36 -77 39
-114 10z"/>
<path d="M3582 2570 c-12 -5 -26 -19 -31 -31 -9 -25 -3 -71 9 -64 4 3 10 -2
14 -10 7 -20 51 -19 76 2 20 17 26 58 12 79 -6 10 -47 35 -54 33 -2 0 -13 -4
-26 -9z"/>
<path d="M1940 2557 c-50 -25 -49 -107 2 -126 30 -11 70 -2 64 15 -3 8 0 11 8
8 7 -3 15 3 18 13 8 33 -7 67 -38 85 -24 14 -33 15 -54 5z"/>
<path d="M726 2539 c-33 -26 -35 -72 -4 -93 32 -23 54 -20 77 10 26 33 27 56
4 76 -31 26 -51 28 -77 7z m37 -24 c4 -8 2 -17 -3 -20 -6 -4 -10 3 -10 14 0
25 6 27 13 6z"/>
<path d="M2333 2552 c-21 -13 -33 -60 -23 -86 27 -71 129 -50 130 27 0 49 -65
86 -107 59z"/>
<path d="M2486 2524 c-19 -18 -21 -55 -4 -72 18 -18 53 -15 71 6 22 24 21 45
-1 65 -23 21 -46 22 -66 1z"/>
<path d="M3948 2521 c-29 -14 -33 -21 -36 -62 -3 -41 1 -50 24 -68 15 -11 39
-21 54 -21 29 0 55 21 42 35 -4 5 -1 5 6 1 16 -9 34 37 26 69 -13 51 -66 72
-116 46z"/>
<path d="M2633 2523 c-18 -6 -16 -50 1 -56 8 -3 22 1 33 8 28 21 -1 62 -34 48z"/>
<path d="M2983 2523 c-7 -3 -13 -16 -13 -29 0 -22 4 -25 27 -22 16 2 29 10 31
20 4 18 -26 38 -45 31z"/>
<path d="M3701 2516 c-21 -25 -4 -58 27 -54 23 2 27 8 27 33 0 23 -5 31 -21
33 -11 2 -26 -4 -33 -12z m49 0 c0 -2 -8 -10 -17 -17 -16 -13 -17 -12 -4 4 13
16 21 21 21 13z"/>
<path d="M1290 2509 c0 -5 -4 -8 -9 -4 -10 6 -41 -21 -41 -36 0 -6 6 -7 13 -3
10 6 10 4 0 -7 -17 -17 -16 -54 0 -68 8 -6 28 -14 46 -17 70 -14 111 81 55
125 -28 22 -64 28 -64 10z"/>
<path d="M2232 2493 c5 -26 38 -29 38 -4 0 15 -6 21 -21 21 -14 0 -19 -5 -17
-17z"/>
<path d="M878 2486 c-23 -17 -36 -54 -32 -88 3 -33 1 -33 -31 -12 -39 26 -86
27 -123 4 -22 -13 -32 -26 -28 -35 3 -8 0 -14 -6 -12 -15 3 -29 -51 -21 -83 8
-34 31 -59 72 -76 44 -19 61 -18 62 4 0 10 3 12 6 5 3 -10 10 -10 26 -1 38 20
58 51 52 81 -3 16 -1 26 5 22 5 -3 5 7 -1 27 -5 21 -5 36 1 42 7 7 10 6 10 -1
0 -14 61 -36 69 -26 3 5 13 9 21 11 24 6 41 24 36 38 -3 7 -1 16 4 19 15 9 0
58 -24 77 -25 21 -74 23 -98 4z m74 -14 c-7 -2 -10 -8 -6 -13 3 -5 3 -9 0 -9
-3 0 -10 9 -15 19 -9 17 -8 18 11 13 13 -3 17 -7 10 -10z m-235 -104 c2 -17 0
-19 -7 -8 -5 8 -6 18 -4 22 8 12 10 10 11 -14z m-27 -42 c0 -2 -7 -9 -15 -16
-13 -11 -14 -10 -9 4 5 14 24 23 24 12z"/>
<path d="M3414 2476 c-36 -16 -67 -80 -58 -123 14 -68 87 -110 150 -86 16 6
16 7 -2 15 -14 6 -13 7 8 3 36 -7 68 33 68 87 0 67 -35 112 -80 103 -19 -4
-21 -3 -10 5 23 15 -38 12 -76 -4z"/>
<path d="M594 2464 c5 -14 4 -15 -9 -4 -12 10 -15 9 -16 -6 -4 -54 17 -80 55
-70 51 13 42 96 -10 96 -20 0 -25 -4 -20 -16z"/>
<path d="M3792 2468 c-25 -25 -4 -88 29 -88 26 0 49 23 49 48 0 33 -16 52 -45
52 -12 0 -26 -5 -33 -12z m68 -47 c0 -6 -5 -13 -12 -17 -7 -5 -8 -3 -3 6 6 10
3 12 -13 8 -12 -4 -20 -2 -16 3 7 12 44 12 44 0z"/>
<path d="M4094 2469 c-3 -6 0 -17 8 -25 13 -13 16 -13 27 0 7 8 10 20 6 26 -8
13 -32 13 -41 -1z"/>
<path d="M2168 2452 c-10 -2 -18 -8 -18 -13 0 -5 -5 -8 -12 -6 -14 3 -58 -60
-58 -85 0 -11 4 -17 9 -14 4 3 6 -5 4 -17 -5 -27 34 -80 53 -73 8 3 14 1 14
-4 0 -16 74 -11 99 6 26 19 51 71 51 108 0 37 -53 93 -93 98 -17 2 -40 2 -49
0z m-23 -62 c-3 -5 -12 -10 -18 -10 -7 0 -6 4 3 10 19 12 23 12 15 0z m25
-104 c0 -2 -7 -7 -16 -10 -8 -3 -12 -2 -9 4 6 10 25 14 25 6z"/>
<path d="M2581 2434 c-18 -8 -35 -23 -38 -34 -3 -11 -8 -20 -12 -20 -3 0 -7
-20 -9 -44 -3 -55 32 -102 84 -112 40 -7 87 2 79 16 -3 5 0 7 8 4 32 -12 60
72 42 125 -21 64 -89 92 -154 65z m-24 -76 c-3 -8 -6 -5 -6 6 -1 11 2 17 5 13
3 -3 4 -12 1 -19z"/>
<path d="M4237 2432 c-10 -10 -17 -28 -17 -40 0 -22 52 -70 58 -53 2 5 9 8 16
5 17 -6 40 22 30 37 -4 8 -3 9 4 5 17 -10 15 16 -4 42 -19 27 -64 29 -87 4z"/>
<path d="M1421 2426 c-7 -8 -11 -30 -9 -48 3 -28 7 -34 31 -36 36 -4 57 13 57
47 0 36 -18 55 -39 38 -12 -9 -13 -9 -7 1 10 17 -19 16 -33 -2z m64 -46 c3 -5
1 -10 -4 -10 -6 0 -11 5 -11 10 0 6 2 10 4 10 3 0 8 -4 11 -10z"/>
<path d="M3645 2428 c-48 -28 -57 -70 -24 -112 41 -52 129 -19 129 49 0 28
-44 70 -65 61 -9 -3 -13 -2 -10 4 8 13 -5 12 -30 -2z"/>
<path d="M1152 2423 c-44 -18 -30 -93 18 -93 47 0 71 49 40 80 -20 20 -34 23
-58 13z"/>
<path d="M2026 2421 c-3 -4 1 -17 9 -27 10 -15 16 -16 26 -7 6 6 9 19 6 27 -7
17 -32 22 -41 7z"/>
<path d="M2431 2414 c-27 -19 -27 -60 -1 -74 38 -20 80 22 60 60 -14 26 -35
31 -59 14z"/>
<path d="M4493 2423 c-17 -6 -16 -38 0 -52 19 -15 50 9 45 35 -3 19 -23 27
-45 17z"/>
<path d="M431 2411 c-8 -5 -10 -14 -6 -21 5 -8 4 -11 -3 -6 -16 10 -31 -25
-25 -56 6 -32 28 -54 38 -38 3 5 12 10 18 10 7 0 6 -4 -3 -10 -13 -9 -13 -11
0 -20 23 -15 45 -12 74 11 20 16 26 29 26 59 0 42 -23 75 -47 66 -8 -3 -11 -1
-8 4 8 12 -45 13 -64 1z m109 -37 c0 -8 -19 -13 -24 -6 -3 5 1 9 9 9 8 0 15
-2 15 -3z m-46 -29 c-4 -8 -11 -12 -17 -8 -8 5 -7 8 1 11 7 2 9 9 6 14 -4 7
-2 8 4 4 6 -4 9 -13 6 -21z m-30 -27 c-3 -5 -11 -8 -17 -8 -7 0 -6 4 3 10 10
6 11 10 3 10 -7 0 -13 8 -13 17 0 15 2 14 14 -2 8 -11 12 -23 10 -27z"/>
<path d="M1033 2394 c-7 -18 6 -45 24 -51 18 -6 42 25 36 47 -7 25 -51 27 -60
4z m38 -17 c-10 -9 -11 -8 -5 6 3 10 9 15 12 12 3 -3 0 -11 -7 -18z"/>
<path d="M4092 2390 c-44 -42 -18 -120 41 -120 43 0 56 10 67 51 8 28 7 39 -8
59 -25 33 -70 38 -100 10z"/>
<path d="M2327 2393 c-4 -3 -7 -15 -7 -26 0 -13 5 -17 16 -13 8 3 12 2 9 -4
-3 -6 1 -10 10 -10 24 0 31 31 10 46 -21 16 -29 17 -38 7z"/>
<path d="M1887 2384 c-3 -3 -3 -13 0 -22 4 -14 3 -14 -5 -3 -14 20 -37 0 -52
-45 -33 -98 64 -179 159 -132 69 34 80 121 21 180 -23 22 -37 28 -73 28 -24 0
-46 -3 -50 -6z"/>
<path d="M3206 2358 c-38 -35 -38 -76 -1 -113 53 -54 143 -10 131 64 -3 18
-13 42 -22 52 -24 26 -77 25 -108 -3z"/>
<path d="M2784 2355 c-4 -10 -1 -21 7 -26 20 -12 34 -5 34 17 0 24 -33 31 -41
9z"/>
<path d="M3819 2345 c-38 -21 -63 -87 -49 -130 14 -42 40 -65 83 -75 83 -18
161 67 131 144 -3 9 -10 13 -15 10 -5 -3 -6 1 -3 9 3 9 -6 24 -22 36 -31 24
-86 27 -125 6z"/>
<path d="M4368 2345 c-15 -9 -35 -29 -43 -45 -16 -31 -21 -95 -6 -86 4 3 6 -5
4 -18 -10 -52 113 -89 171 -50 54 35 63 120 19 171 -34 39 -102 52 -145 28z
m66 -63 c3 -5 -1 -9 -9 -9 -8 0 -12 4 -9 9 3 4 7 8 9 8 2 0 6 -4 9 -8z m76
-101 c-6 -12 -15 -21 -21 -21 -5 0 -2 11 8 24 21 28 29 27 13 -3z m-65 9 c3
-6 -1 -7 -9 -4 -18 7 -21 14 -7 14 6 0 13 -4 16 -10z m-15 -15 c0 -7 -30 -13
-34 -7 -3 4 4 9 15 9 10 1 19 0 19 -2z m20 -15 c0 -5 -5 -10 -11 -10 -5 0 -7
5 -4 10 3 6 8 10 11 10 2 0 4 -4 4 -10z"/>
<path d="M3093 2330 c-42 -17 -38 -81 7 -93 20 -5 60 25 60 46 0 22 -21 46
-37 40 -11 -4 -14 -3 -9 5 8 14 8 14 -21 2z"/>
<path d="M4007 2334 c-16 -16 -7 -44 14 -44 15 0 20 5 17 22 -3 22 -19 33 -31
22z"/>
<path d="M580 2320 c-12 -7 -12 -12 -2 -22 9 -9 15 -9 24 0 16 16 -2 34 -22
22z"/>
<path d="M1342 2324 c-6 -3 -9 -11 -6 -16 4 -6 2 -8 -4 -5 -17 11 -41 -3 -57
-36 -34 -68 -3 -149 62 -162 25 -4 38 -2 44 7 7 11 9 11 9 0 0 -21 41 -4 67
26 45 53 36 136 -17 170 -22 13 -81 23 -98 16z m-52 -84 c0 -5 -5 -10 -11 -10
-5 0 -7 5 -4 10 3 6 8 10 11 10 2 0 4 -4 4 -10z m154 -56 c3 -8 2 -12 -4 -9
-6 3 -10 10 -10 16 0 14 7 11 14 -7z m-49 -14 c3 -5 1 -10 -4 -10 -6 0 -11 5
-11 10 0 6 2 10 4 10 3 0 8 -4 11 -10z"/>
<path d="M1035 2295 c-15 -14 -25 -36 -25 -53 0 -34 31 -78 61 -87 29 -9 86
23 97 55 12 35 -4 94 -24 86 -8 -3 -13 -2 -10 3 3 5 -1 12 -10 15 -32 12 -66
5 -89 -19z m15 -85 c0 -5 -2 -10 -4 -10 -3 0 -8 5 -11 10 -3 6 -1 10 4 10 6 0
11 -4 11 -10z m30 -25 c0 -8 -2 -15 -4 -15 -2 0 -6 7 -10 15 -3 8 -1 15 4 15
6 0 10 -7 10 -15z"/>
<path d="M2363 2308 c-30 -15 -48 -60 -34 -87 23 -42 85 -55 114 -23 23 25 21
78 -3 102 -22 22 -43 24 -77 8z"/>
<path d="M1210 2294 c9 -11 10 -15 3 -10 -8 4 -13 2 -13 -4 0 -6 10 -10 23 -8
30 4 28 32 -3 36 -22 4 -23 2 -10 -14z"/>
<path d="M902 2288 c-15 -15 -15 -51 0 -66 19 -19 56 -14 68 8 14 27 3 63 -16
56 -9 -3 -12 -1 -9 4 9 14 -29 12 -43 -2z"/>
<path d="M3558 2265 c-33 -19 -43 -48 -28 -85 17 -40 59 -56 98 -36 49 25 56
72 17 111 -27 28 -48 31 -87 10z"/>
<path d="M4203 2263 c-11 -8 -16 -27 -14 -50 2 -22 39 -35 62 -23 31 17 23 74
-11 78 -14 1 -30 -1 -37 -5z"/>
<path d="M550 2239 c0 -6 -9 -8 -20 -4 -34 11 -100 -38 -79 -59 15 -17 10 -29
-7 -15 -14 11 -15 7 -11 -41 4 -39 12 -59 31 -78 22 -23 28 -24 52 -13 24 11
26 10 14 -3 -11 -14 -9 -16 15 -16 36 0 78 26 99 61 21 36 13 105 -16 136 -24
25 -78 48 -78 32z m19 -22 c-2 -2 -17 -11 -34 -21 l-30 -17 24 20 c13 12 28
21 34 21 6 0 8 -1 6 -3z m51 -37 c-6 -11 -13 -20 -16 -20 -2 0 0 9 6 20 6 11
13 20 16 20 2 0 0 -9 -6 -20z m-136 4 c12 -5 13 -9 3 -19 -9 -9 -14 -10 -19
-1 -16 23 -10 30 16 20z m99 -59 c-3 -9 -8 -14 -10 -11 -3 3 -2 9 2 15 9 16
15 13 8 -4z m67 -11 c0 -8 -19 -13 -24 -6 -3 5 1 9 9 9 8 0 15 -2 15 -3z
m-179 -33 c-13 -8 -13 -12 -1 -28 13 -17 13 -17 -4 -1 -19 16 -15 38 7 38 8 0
7 -4 -2 -9z m64 -1 c3 -5 1 -10 -4 -10 -6 0 -11 5 -11 10 0 6 2 10 4 10 3 0 8
-4 11 -10z"/>
<path d="M3694 2235 c-7 -18 3 -35 21 -35 18 0 26 15 19 34 -8 20 -33 21 -40
1z"/>
<path d="M4020 2218 c-27 -29 -26 -78 3 -111 52 -61 146 -16 133 63 -10 65
-93 94 -136 48z m120 -33 c11 -13 10 -14 -4 -9 -9 3 -16 10 -16 15 0 13 6 11
20 -6z"/>
<path d="M2962 2217 c-71 -41 -77 -145 -10 -191 12 -9 42 -16 66 -16 95 0 146
111 84 182 -32 35 -101 48 -140 25z m59 -84 c-12 -20 -14 -14 -5 12 4 9 9 14
11 11 3 -2 0 -13 -6 -23z"/>
<path d="M3312 2210 c-43 -40 -17 -110 41 -110 18 0 37 4 43 8 23 15 47 81 24
67 -5 -3 -7 0 -4 8 8 21 -23 47 -55 47 -15 0 -37 -9 -49 -20z"/>
<path d="M2059 2213 c-44 -11 -46 -109 -3 -138 58 -37 124 -1 124 68 0 62 -48
90 -121 70z"/>
<path d="M2224 2195 c-20 -31 -10 -63 23 -71 35 -9 57 7 61 42 7 52 -55 74
-84 29z"/>
<path d="M2490 2199 c-14 -26 -5 -69 15 -70 8 -1 21 -2 28 -3 20 -3 47 25 47
50 0 43 -70 60 -90 23z"/>
<path d="M3452 2198 c4 -27 33 -36 42 -13 8 22 -1 35 -25 35 -15 0 -20 -6 -17
-22z"/>
<path d="M3171 2186 c-7 -8 -11 -27 -9 -43 3 -24 8 -28 40 -31 33 -3 38 0 44
24 4 15 2 34 -3 43 -13 21 -57 26 -72 7z m46 -53 c0 -9 -4 -10 -14 -2 -7 6
-13 12 -13 14 0 1 6 2 13 2 8 0 14 -6 14 -14z"/>
<path d="M1172 2178 c-16 -16 -15 -29 3 -55 28 -41 89 3 65 47 -12 22 -49 27
-68 8z"/>
<path d="M1794 2175 c-4 -10 -1 -21 7 -26 20 -12 34 -5 34 17 0 24 -33 31 -41
9z"/>
<path d="M889 2173 c-43 -7 -82 -55 -82 -103 0 -51 16 -82 53 -103 55 -33 135
-12 159 40 19 42 13 99 -14 131 -27 32 -61 46 -69 28 -3 -7 -5 -7 -5 2 -1 6
-4 11 -8 11 -5 -1 -20 -4 -34 -6z m116 -71 c-3 -3 -11 0 -18 7 -9 10 -8 11 6
5 10 -3 15 -9 12 -12z m-114 -129 c13 -16 12 -17 -3 -4 -10 7 -18 15 -18 17 0
8 8 3 21 -13z"/>
<path d="M708 2149 c-23 -13 -23 -51 0 -72 16 -15 20 -15 40 -1 14 10 21 24
19 37 -6 45 -25 57 -59 36z m42 -20 c0 -5 -4 -9 -8 -9 -5 0 -9 7 -9 15 0 8 4
12 9 9 4 -3 8 -9 8 -15z"/>
<path d="M2380 2146 c-6 -8 -10 -25 -8 -38 2 -18 9 -22 28 -20 20 2 22 0 10
-8 -20 -13 -4 -13 21 0 36 20 15 80 -29 80 -5 0 -15 -7 -22 -14z"/>
<path d="M4280 2140 c0 -15 5 -20 18 -18 9 2 17 10 17 18 0 8 -8 16 -17 18
-13 2 -18 -3 -18 -18z"/>
<path d="M3671 2124 c-23 -29 -29 -70 -9 -58 7 5 8 3 4 -5 -12 -18 23 -51 54
-51 63 0 97 67 58 113 -32 37 -79 37 -107 1z m76 -56 c-3 -8 -6 -5 -6 6 -1 11
2 17 5 13 3 -3 4 -12 1 -19z m-46 -31 c-10 -9 -11 -8 -5 6 3 10 9 15 12 12 3
-3 0 -11 -7 -18z m74 13 c-3 -5 -11 -10 -16 -10 -6 0 -7 5 -4 10 3 6 11 10 16
10 6 0 7 -4 4 -10z"/>
<path d="M4186 2134 c-19 -18 -20 -28 -5 -55 6 -12 17 -18 25 -15 9 3 12 1 9
-4 -8 -13 1 -13 26 0 22 12 26 59 7 78 -17 17 -44 15 -62 -4z m8 -40 c3 -8 2
-12 -4 -9 -6 3 -10 10 -10 16 0 14 7 11 14 -7z m56 6 c0 -5 -4 -10 -10 -10 -5
0 -10 5 -10 10 0 6 5 10 10 10 6 0 10 -4 10 -10z"/>
<path d="M1962 2128 c6 -18 28 -21 28 -4 0 9 -7 16 -16 16 -9 0 -14 -5 -12
-12z"/>
<path d="M2800 2122 c-45 -36 7 -99 56 -67 30 19 31 49 2 69 -28 20 -31 20
-58 -2z m58 -46 c-2 -1 -12 -8 -22 -16 -18 -14 -18 -14 -6 7 8 12 18 19 23 16
4 -3 7 -6 5 -7z"/>
<path d="M1052 2118 c2 -5 8 -9 13 -9 5 0 11 4 13 9 1 5 -4 9 -13 9 -9 0 -14
-4 -13 -9z"/>
<path d="M1863 2123 c-27 -5 -63 -48 -63 -75 0 -31 28 -75 51 -81 34 -9 79 4
94 27 20 31 24 93 5 81 -5 -3 -7 0 -4 8 9 25 -39 48 -83 40z m2 -112 c-3 -6
-11 -11 -16 -11 -5 0 -4 6 3 14 14 16 24 13 13 -3z"/>
<path d="M3462 2123 c-6 -2 -10 -9 -7 -14 4 -5 -1 -6 -9 -3 -18 7 -56 -49 -56
-82 0 -62 54 -124 110 -124 59 0 120 58 120 115 0 77 -87 137 -158 108z"/>
<path d="M3885 2086 c-25 -25 -30 -83 -7 -79 6 2 9 -4 6 -12 -9 -22 39 -38 48
-16 4 9 7 10 7 4 1 -21 29 -15 45 9 23 32 20 65 -9 93 -31 31 -59 32 -90 1z
m30 -6 c3 -6 -1 -7 -9 -4 -18 7 -21 14 -7 14 6 0 13 -4 16 -10z"/>
<path d="M4470 2102 c-18 -5 -40 -31 -40 -48 0 -40 71 -59 90 -25 13 25 13 44
0 36 -5 -3 -8 0 -5 7 6 16 -24 37 -45 30z"/>
<path d="M1134 2091 c4 -5 -2 -7 -12 -4 -26 6 -54 -30 -55 -73 -1 -28 5 -42
27 -60 34 -30 67 -30 101 -1 45 38 38 113 -12 136 -29 13 -56 14 -49 2z"/>
<path d="M1267 2082 c-12 -2 -17 -11 -15 -25 4 -31 52 -31 56 -1 3 23 -12 33
-41 26z m20 -15 c0 -8 -6 -14 -14 -14 -9 0 -10 4 -2 14 6 7 12 13 14 13 1 0 2
-6 2 -13z"/>
<path d="M2250 2068 c-29 -31 -26 -79 6 -112 66 -66 167 14 123 97 -16 30 -28
37 -71 37 -26 0 -44 -7 -58 -22z"/>
<path d="M4300 2068 c-40 -43 -14 -98 47 -98 54 0 83 59 46 92 -33 28 -70 30
-93 6z m55 -6 c-3 -3 -11 0 -18 7 -9 10 -8 11 6 5 10 -3 15 -9 12 -12z"/>
<path d="M3218 2066 c-21 -16 -36 -76 -19 -76 6 0 11 -7 11 -15 0 -21 43 -39
74 -31 14 3 33 20 41 37 15 28 15 33 -2 62 -15 25 -27 33 -53 34 -19 2 -43 -3
-52 -11z"/>
<path d="M1346 2051 c-26 -28 -24 -80 4 -103 69 -56 163 39 100 102 -26 26
-81 26 -104 1z m74 -83 c0 -4 -7 -8 -15 -8 -8 0 -15 4 -15 8 0 5 7 9 15 9 8 0
15 -4 15 -9z"/>
<path d="M672 2043 c-32 -15 -52 -46 -52 -78 0 -27 51 -75 79 -75 88 0 118
115 40 155 -34 18 -27 18 -67 -2z m8 -98 c0 -2 -6 -5 -13 -8 -8 -3 -14 1 -14
8 0 7 6 11 14 8 7 -3 13 -6 13 -8z m65 -25 c3 -6 -1 -7 -9 -4 -18 7 -21 14 -7
14 6 0 13 -4 16 -10z"/>
<path d="M2002 2038 c-7 -7 -12 -25 -12 -40 0 -51 81 -50 88 1 7 42 -46 69
-76 39z"/>
<path d="M4075 2041 c-104 -43 -65 -210 48 -211 16 0 26 4 22 10 -3 6 -2 10 4
10 5 0 11 -6 13 -12 6 -18 65 43 74 76 10 40 -3 76 -24 70 -14 -5 -15 -4 -2 5
13 10 11 15 -13 36 -29 26 -81 32 -122 16z"/>
<path d="M2114 2014 c-5 -19 -1 -31 14 -46 20 -20 22 -20 46 -4 44 29 28 76
-26 76 -21 0 -29 -6 -34 -26z"/>
<path d="M3122 2018 c-25 -25 0 -64 32 -52 21 8 21 50 0 58 -20 8 -18 8 -32
-6z"/>
<path d="M3804 2015 c-7 -17 4 -37 19 -32 5 1 12 13 14 25 3 25 -24 31 -33 7z"/>
<path d="M515 1966 c-30 -30 -31 -47 -7 -69 23 -21 56 -22 73 -1 27 32 18 63
-23 85 -14 8 -24 4 -43 -15z m53 0 c-2 -1 -12 -8 -22 -16 -11 -8 -17 -10 -13
-3 4 6 1 13 -5 16 -7 2 0 4 15 4 15 0 27 0 25 -1z m-39 -57 c-12 -7 -12 -9 0
-9 8 0 12 -3 8 -6 -10 -10 -26 6 -21 21 4 8 11 12 16 9 6 -4 5 -10 -3 -15z"/>
<path d="M4420 1960 c-23 -43 35 -81 61 -39 12 19 11 25 -7 43 -21 22 -41 20
-54 -4z"/>
<path d="M3822 1949 c-13 -5 -20 -13 -17 -19 4 -6 1 -9 -7 -8 -21 5 -14 -70 8
-87 32 -24 80 -19 103 11 27 35 26 59 -4 89 -25 26 -45 30 -83 14z m18 -58 c0
-4 -6 -8 -14 -8 -8 0 -12 6 -9 14 5 13 23 9 23 -6z m39 -4 c0 -9 -2 -8 -6 1
-2 6 -10 9 -15 6 -7 -4 -8 -2 -4 5 9 13 26 5 25 -12z m-9 -47 c0 -5 -2 -10 -4
-10 -3 0 -8 5 -11 10 -3 6 -1 10 4 10 6 0 11 -4 11 -10z"/>
<path d="M1940 1930 c0 -13 7 -20 20 -20 13 0 20 7 20 20 0 13 -7 20 -20 20
-13 0 -20 -7 -20 -20z"/>
<path d="M3322 1938 c-19 -19 -14 -55 9 -71 25 -18 56 -11 70 15 9 16 8 19 -3
13 -10 -6 -10 -5 -1 5 31 33 -43 70 -75 38z"/>
<path d="M4270 1935 c-17 -21 -8 -50 17 -53 27 -4 50 31 30 45 -26 21 -35 22
-47 8z"/>
<path d="M1245 1930 c3 -5 0 -7 -8 -4 -18 7 -70 -54 -63 -73 4 -8 1 -11 -5 -7
-7 4 -9 -6 -7 -27 2 -19 8 -33 14 -32 7 1 10 -6 7 -16 -6 -23 52 -61 93 -61
32 0 94 33 94 50 0 6 -5 8 -12 4 -7 -4 -8 -3 -4 5 4 6 11 9 16 6 4 -3 11 2 14
11 17 44 -5 110 -46 138 -25 18 -103 22 -93 6z m43 -96 c-12 -12 -17 -13 -23
-3 -5 7 -4 10 2 6 6 -4 14 0 17 9 4 9 9 14 13 10 4 -3 0 -14 -9 -22z"/>
<path d="M2038 1923 c-102 -64 -27 -232 90 -201 20 5 30 13 26 20 -4 7 -3 8 5
4 18 -11 40 12 51 55 20 74 -31 139 -107 139 -21 0 -50 -8 -65 -17z m77 -173
c3 -5 1 -10 -4 -10 -6 0 -11 5 -11 10 0 6 2 10 4 10 3 0 8 -4 11 -10z"/>
<path d="M3952 1918 c2 -13 8 -23 13 -23 6 0 11 10 13 23 2 15 -2 22 -13 22
-11 0 -15 -7 -13 -22z"/>
<path d="M1022 1914 c-30 -21 -30 -77 -1 -98 30 -21 80 0 94 38 8 25 6 31 -18
52 -33 28 -45 29 -75 8z m52 -12 c3 -5 -1 -9 -9 -9 -8 0 -12 4 -9 9 3 4 7 8 9
8 2 0 6 -4 9 -8z m9 -63 c-4 -4 -15 -4 -23 2 -12 9 -12 10 3 5 15 -5 17 -2 12
17 -5 20 -5 20 6 4 6 -11 7 -23 2 -28z"/>
<path d="M1783 1909 c-47 -30 -62 -85 -39 -138 10 -21 28 -43 39 -49 33 -15
67 -21 67 -11 0 4 6 6 14 3 19 -7 58 14 51 27 -4 5 -1 8 6 7 7 -2 20 15 28 38
12 35 12 46 1 74 -27 65 -106 88 -167 49z"/>
<path d="M2220 1920 c0 -6 7 -10 15 -10 8 0 15 2 15 4 0 2 -7 6 -15 10 -8 3
-15 1 -15 -4z"/>
<path d="M921 1911 c-19 -12 -6 -41 17 -41 26 0 33 10 21 31 -11 21 -18 23
-38 10z"/>
<path d="M789 1902 c-1 -4 -1 -10 0 -14 0 -5 -4 -7 -11 -5 -6 1 -16 -13 -22
-32 -9 -31 -7 -36 18 -57 34 -30 57 -30 83 -1 32 34 36 61 14 89 -19 23 -79
38 -82 20z"/>
<path d="M3716 1883 c-9 -23 16 -37 31 -16 7 9 10 20 7 24 -9 15 -31 10 -38
-8z"/>
<path d="M4341 1879 c-18 -17 -20 -23 -9 -30 10 -6 10 -9 1 -9 -7 0 -13 -6
-13 -13 0 -43 64 -69 97 -40 35 30 38 59 9 88 -31 31 -55 32 -85 4z"/>
<path d="M558 1848 c-27 -21 -27 -77 -2 -103 39 -38 126 12 109 64 -15 47 -70
67 -107 39z"/>
<path d="M3964 1845 c-10 -25 4 -45 30 -45 28 0 37 17 24 43 -11 21 -46 23
-54 2z"/>
<path d="M697 1834 c-14 -15 -6 -34 14 -34 14 0 19 5 17 17 -3 18 -20 27 -31
17z"/>
<path d="M4233 1828 c-14 -23 -13 -43 4 -55 20 -15 53 0 53 25 0 35 -40 56
-57 30z"/>
<path d="M1117 1813 c-12 -11 -8 -23 8 -23 8 0 15 7 15 15 0 16 -12 20 -23 8z"/>
<path d="M3683 1799 c-18 -12 -33 -25 -33 -31 0 -5 5 -6 12 -2 7 4 8 3 4 -5
-4 -6 -11 -9 -16 -6 -15 9 -24 -45 -14 -84 11 -43 62 -81 111 -81 23 0 32 4
27 12 -4 7 -3 8 5 4 21 -13 60 22 72 65 12 37 11 45 -10 84 -35 66 -97 84
-158 44z"/>
<path d="M917 1792 c-39 -43 -9 -95 50 -88 52 5 68 40 37 84 -19 27 -64 29
-87 4z m50 1 c-10 -3 -14 -9 -10 -16 4 -7 -1 -6 -10 2 -23 18 -22 21 11 20 17
-1 20 -3 9 -6z m19 -37 c1 -9 -5 -12 -20 -8 -18 5 -18 7 -3 10 10 2 14 8 11
15 -4 7 -3 8 1 4 5 -4 10 -14 11 -21z"/>
<path d="M3886 1794 c-21 -21 -20 -50 3 -73 26 -26 57 -17 70 20 9 25 7 33 -9
49 -24 24 -43 25 -64 4z"/>
<path d="M4140 1775 c0 -22 4 -26 23 -23 14 2 22 10 22 23 0 13 -8 21 -22 23
-19 3 -23 -1 -23 -23z"/>
<path d="M4007 1762 c-20 -22 -22 -71 -4 -95 6 -9 26 -20 44 -23 63 -12 108
71 63 116 -26 26 -81 26 -103 2z"/>
<path d="M1082 1758 c-14 -14 -16 -68 -2 -68 6 0 10 -5 10 -10 0 -7 -13 -8
-34 -4 -29 5 -39 2 -60 -19 -21 -21 -23 -29 -16 -62 5 -21 15 -42 22 -46 23
-15 64 -9 87 12 20 18 22 29 18 63 -6 39 -4 43 22 53 22 8 28 17 29 42 1 43
-47 68 -76 39z m-67 -146 c-3 -3 -11 0 -18 7 -9 10 -8 11 6 5 10 -3 15 -9 12
-12z m60 -22 c3 -5 1 -10 -4 -10 -6 0 -11 5 -11 10 0 6 2 10 4 10 3 0 8 -4 11
-10z m-30 -30 c3 -6 -1 -7 -9 -4 -18 7 -21 14 -7 14 6 0 13 -4 16 -10z"/>
<path d="M746 1750 c-16 -5 -39 -19 -52 -31 -24 -23 -41 -90 -27 -111 4 -7 8
-16 8 -20 0 -19 48 -58 72 -59 85 -4 117 24 136 118 8 39 -20 79 -69 99 -19 8
-35 14 -36 13 -2 0 -16 -5 -32 -9z m-16 -40 c0 -5 -2 -10 -4 -10 -3 0 -8 5
-11 10 -3 6 -1 10 4 10 6 0 11 -4 11 -10z m17 -42 c-3 -8 -6 -5 -6 6 -1 11 2
17 5 13 3 -3 4 -12 1 -19z m104 -45 c13 -16 12 -17 -3 -4 -17 13 -22 21 -14
21 2 0 10 -8 17 -17z m-96 -31 c-6 -7 -34 11 -29 19 3 5 11 3 19 -4 7 -6 12
-13 10 -15z"/>
<path d="M4293 1744 c-7 -3 -9 -12 -6 -20 3 -9 0 -14 -8 -12 -9 2 -15 -7 -17
-24 -4 -30 27 -68 56 -68 27 0 64 30 58 47 -3 8 -1 11 4 8 21 -13 9 27 -15 50
-23 24 -45 29 -72 19z"/>
<path d="M2610 1725 c-25 -30 15 -70 45 -45 20 16 19 46 -1 54 -23 9 -30 8
-44 -9z"/>
<path d="M4164 1696 c-7 -30 1 -46 25 -46 29 0 45 25 31 49 -15 29 -48 27 -56
-3z"/>
<path d="M1960 1690 c-27 -27 -27 -80 1 -87 13 -4 17 -8 9 -13 -7 -4 2 -10 21
-14 40 -8 74 12 83 49 8 32 -10 69 -31 61 -11 -4 -13 -2 -9 9 8 23 -50 19 -74
-5z m90 -94 c0 -2 -7 -7 -16 -10 -8 -3 -12 -2 -9 4 6 10 25 14 25 6z"/>
<path d="M2441 1696 c-33 -18 -50 -53 -51 -104 0 -37 5 -49 32 -74 19 -17 39
-28 49 -25 10 3 19 1 21 -4 2 -5 19 -4 40 1 83 23 104 137 37 199 -26 24 -90
28 -128 7z m-1 -36 c0 -5 -2 -10 -4 -10 -3 0 -8 5 -11 10 -3 6 -1 10 4 10 6 0
11 -4 11 -10z m60 -101 c0 -5 -4 -9 -8 -9 -5 0 -9 7 -9 15 0 8 4 12 9 9 4 -3
8 -9 8 -15z"/>
<path d="M584 1675 c-4 -9 -2 -21 3 -26 14 -14 45 1 41 20 -4 22 -37 26 -44 6z"/>
<path d="M2680 1662 c-34 -34 -39 -74 -15 -109 17 -24 71 -39 104 -28 23 7 51
53 51 84 0 30 -41 70 -77 77 -27 5 -37 1 -63 -24z"/>
<path d="M3877 1658 c-12 -38 25 -70 51 -44 13 13 13 17 1 32 -12 15 -12 17 0
9 10 -5 12 -4 7 3 -10 16 -53 15 -59 0z"/>
<path d="M2289 1631 c-21 -16 -22 -22 -11 -45 8 -19 19 -26 40 -26 27 0 52 15
52 33 0 4 -6 5 -12 1 -10 -5 -10 -4 -1 6 10 11 9 17 -4 32 -21 23 -35 23 -64
-1z"/>
<path d="M915 1631 c-7 -12 12 -24 25 -16 11 7 4 25 -10 25 -5 0 -11 -4 -15
-9z"/>
<path d="M3583 1624 c-4 -11 1 -22 12 -30 22 -16 39 -5 33 22 -4 25 -36 30
-45 8z"/>
<path d="M3456 1605 c-14 -13 -26 -35 -26 -47 0 -27 26 -68 43 -68 7 0 19 -4
27 -10 12 -7 9 -13 -13 -30 -40 -32 -60 -85 -47 -125 22 -67 89 -98 154 -71
58 24 81 97 51 156 -14 27 -63 62 -82 59 -4 -1 -17 -1 -28 0 -20 1 -20 2 1 19
48 38 51 75 11 120 -27 29 -58 28 -91 -3z"/>
<path d="M3971 1614 c-15 -11 -21 -23 -18 -35 3 -11 1 -17 -4 -13 -18 10 -9
-26 11 -46 20 -20 67 -29 55 -10 -3 5 0 7 8 4 19 -7 47 22 47 47 0 22 -42 69
-62 69 -8 0 -24 -7 -37 -16z m69 -9 c0 -2 -6 -8 -13 -14 -10 -8 -14 -7 -14 2
0 8 6 14 14 14 7 0 13 -1 13 -2z"/>
<path d="M4183 1618 c-43 -11 -83 -61 -83 -103 0 -70 35 -107 106 -111 60 -4
104 35 111 97 4 38 1 50 -21 76 -32 38 -71 52 -113 41z m-16 -98 c-1 -21 -10
-18 -13 5 -1 8 2 15 6 15 5 0 8 -9 7 -20z m118 -69 c3 -5 2 -12 -3 -15 -5 -3
-9 1 -9 9 0 17 3 19 12 6z"/>
<path d="M2888 1609 c-40 -23 -9 -76 37 -65 27 7 35 42 13 64 -14 14 -27 15
-50 1z m27 -38 c3 -5 1 -12 -5 -16 -5 -3 -10 1 -10 9 0 18 6 21 15 7z"/>
<path d="M3771 1562 c-94 -50 -58 -203 47 -206 49 -1 83 17 105 54 34 58 16
125 -43 155 -38 20 -68 19 -109 -3z m39 -32 c0 -5 -5 -10 -11 -10 -5 0 -7 5
-4 10 3 6 8 10 11 10 2 0 4 -4 4 -10z m-6 -126 c3 -8 2 -12 -4 -9 -6 3 -10 10
-10 16 0 14 7 11 14 -7z m80 -2 c3 -5 -1 -9 -9 -9 -8 0 -12 4 -9 9 3 4 7 8 9
8 2 0 6 -4 9 -8z"/>
<path d="M2070 1545 c0 -22 4 -26 23 -23 14 2 22 10 22 23 0 13 -8 21 -22 23
-19 3 -23 -1 -23 -23z"/>
<path d="M3612 1558 c-7 -7 -12 -25 -12 -40 0 -34 41 -59 68 -41 21 12 28 59
11 79 -14 17 -51 18 -67 2z m11 -43 c-3 -9 -8 -14 -10 -11 -3 3 -2 9 2 15 9
16 15 13 8 -4z"/>
<path d="M893 1545 c-41 -29 -33 -110 12 -121 29 -7 72 11 85 36 34 64 -37
127 -97 85z m63 -25 c-2 -16 1 -31 7 -33 6 -2 3 -6 -7 -10 -14 -6 -17 -2 -14
21 2 18 -1 26 -10 24 -8 -1 -11 2 -7 8 3 6 11 8 16 5 5 -4 9 -1 9 4 0 6 2 11
5 11 2 0 3 -13 1 -30z"/>
<path d="M1442 1548 c-16 -16 -15 -45 1 -55 44 -28 88 -1 69 42 -13 27 -49 34
-70 13z"/>
<path d="M1702 1545 c-27 -20 -28 -45 -2 -73 30 -32 55 -28 77 12 11 20 -2 66
-18 66 -4 0 -13 2 -21 5 -7 3 -23 -2 -36 -10z m49 -42 c11 -15 11 -16 0 -6 -7
6 -21 9 -30 6 -14 -4 -14 -3 -1 6 8 6 16 11 16 11 1 0 8 -8 15 -17z"/>
<path d="M1935 1553 c-44 -8 -76 -45 -81 -96 -6 -52 16 -104 38 -91 7 4 8 3 4
-4 -21 -34 97 -40 134 -7 20 18 46 80 30 70 -6 -4 -10 0 -10 9 0 8 5 16 12 18
17 6 -9 65 -36 83 -24 16 -61 23 -91 18z"/>
<path d="M3020 1542 c-45 -25 -62 -57 -57 -110 5 -50 26 -77 73 -92 92 -31
175 52 144 144 -20 63 -99 91 -160 58z m30 -171 c0 -5 -7 -12 -16 -15 -14 -5
-15 -4 -4 9 14 17 20 19 20 6z"/>
<path d="M2223 1534 c-3 -8 -1 -20 4 -25 13 -13 43 0 43 18 0 10 -6 13 -16 9
-8 -3 -12 -2 -9 4 3 6 1 10 -5 10 -6 0 -13 -7 -17 -16z"/>
<path d="M1116 1531 c-4 -5 0 -12 6 -15 7 -3 2 -3 -11 0 -20 5 -23 3 -18 -10
4 -11 3 -15 -4 -10 -7 4 -9 -2 -7 -17 4 -30 45 -52 70 -38 10 5 21 21 24 36 5
20 2 31 -16 45 -25 20 -36 22 -44 9z m47 -36 c-7 -21 -13 -19 -13 6 0 11 4 18
10 14 5 -3 7 -12 3 -20z m-42 -32 c-12 -20 -14 -14 -5 12 4 9 9 14 11 11 3 -2
0 -13 -6 -23z"/>
<path d="M1270 1525 c-14 -8 -19 -14 -12 -15 7 0 11 -4 7 -10 -3 -5 -12 -7
-20 -4 -15 6 -29 -17 -38 -63 -5 -23 0 -40 17 -65 13 -18 28 -32 34 -30 7 1
12 -2 12 -6 0 -5 12 -15 28 -22 l27 -13 -27 -9 c-24 -8 -31 -19 -30 -48 0 -3
3 -15 6 -26 6 -19 2 -22 -35 -27 -22 -3 -47 -14 -55 -24 -29 -37 8 -113 56
-113 34 0 70 39 70 75 0 19 -4 37 -10 40 -18 11 -10 22 19 28 39 8 55 37 39
71 -6 14 -15 26 -20 26 -21 0 -4 18 31 33 48 21 76 73 67 122 -7 35 -37 70
-51 58 -4 -5 -5 -2 -1 5 5 8 -2 16 -19 22 -36 14 -65 12 -95 -5z m-5 -355 c3
-5 1 -10 -4 -10 -6 0 -11 5 -11 10 0 6 2 10 4 10 3 0 8 -4 11 -10z m0 -90 c3
-5 1 -10 -4 -10 -6 0 -11 5 -11 10 0 6 2 10 4 10 3 0 8 -4 11 -10z"/>
<path d="M3207 1534 c-12 -13 -8 -52 7 -57 21 -8 49 16 44 39 -3 19 -38 31
-51 18z"/>
<path d="M3294 1516 c-11 -17 -13 -35 -8 -60 7 -41 15 -48 59 -53 42 -4 75 27
75 71 0 42 -24 63 -72 64 -30 1 -41 -4 -54 -22z"/>
<path d="M658 1513 c-10 -19 -1 -38 17 -38 13 0 20 7 20 20 0 19 -29 34 -37
18z"/>
<path d="M2308 1509 c-24 -14 -24 -71 0 -92 25 -23 54 -21 80 3 57 53 -12 129
-80 89z m49 -84 c0 -8 -4 -15 -9 -15 -10 0 -11 14 -1 23 9 10 10 9 10 -8z"/>
<path d="M2602 1508 c-7 -7 -12 -21 -12 -33 0 -48 59 -62 86 -20 16 24 16 27
-1 45 -20 22 -55 26 -73 8z"/>
<path d="M2117 1498 c-23 -18 -29 -66 -11 -99 8 -16 18 -29 22 -30 4 0 15 -2
26 -4 29 -6 64 15 76 46 14 32 9 65 -8 62 -7 -2 -11 3 -9 10 1 6 -6 11 -15 11
-10 -1 -15 2 -12 7 8 14 -50 11 -69 -3z"/>
<path d="M2830 1492 c-30 -24 -30 -70 0 -94 27 -22 67 -20 62 2 -2 8 0 12 4 8
12 -12 34 13 34 38 0 29 -33 64 -59 64 -10 0 -29 -8 -41 -18z"/>
<path d="M1548 1489 c-10 -5 -20 -25 -24 -45 -5 -28 -2 -40 17 -60 12 -13 32
-24 44 -24 29 0 67 29 61 47 -3 8 -1 11 4 8 18 -11 10 32 -11 59 -22 27 -59
34 -91 15z"/>
<path d="M728 1473 c-9 -10 -19 -28 -22 -39 -7 -24 11 -74 28 -74 6 0 22 -3
36 -5 22 -5 23 -4 5 5 -18 9 -17 10 8 6 49 -6 74 55 41 102 -19 27 -74 30 -96
5z m85 -13 c-8 -8 -53 -7 -53 2 0 4 13 6 29 5 16 -1 27 -4 24 -7z m-66 -62
c-3 -8 -6 -5 -6 6 -1 11 2 17 5 13 3 -3 4 -12 1 -19z"/>
<path d="M2734 1475 c-4 -9 -2 -21 4 -27 15 -15 44 -1 40 19 -4 23 -36 29 -44
8z"/>
<path d="M3982 1458 c-13 -13 -15 -37 -6 -62 7 -19 55 -21 72 -4 28 28 7 78
-33 78 -12 0 -26 -5 -33 -12z"/>
<path d="M1014 1446 c-10 -26 1 -51 23 -54 30 -4 49 31 27 52 -19 20 -43 21
-50 2z"/>
<path d="M2450 1434 c-14 -10 -31 -24 -37 -32 -16 -20 -17 -46 -1 -36 7 4 8 3
4 -5 -4 -6 -12 -8 -18 -5 -23 14 4 -72 31 -99 26 -27 112 -53 98 -29 -4 6 0 9
10 6 33 -7 83 52 83 99 0 87 -101 147 -170 101z m78 -139 c-3 -3 -9 2 -12 12
-6 14 -5 15 5 6 7 -7 10 -15 7 -18z"/>
<path d="M3217 1433 c-10 -10 -8 -41 3 -48 5 -3 19 -1 30 5 16 9 18 15 10 30
-11 20 -31 26 -43 13z"/>
<path d="M1711 1421 c-8 -5 -10 -14 -6 -21 5 -9 4 -11 -3 -6 -7 4 -12 4 -13
-1 0 -4 -2 -18 -5 -31 -3 -15 4 -31 21 -47 28 -29 65 -33 65 -7 0 13 2 14 9 4
6 -11 11 -10 25 4 20 20 19 91 -1 87 -7 -2 -12 3 -10 10 3 15 -62 21 -82 8z"/>
<path d="M1133 1394 c-3 -8 -1 -20 5 -26 16 -16 42 -2 42 22 0 24 -38 28 -47
4z"/>
<path d="M1473 1403 c-7 -3 -13 -16 -13 -30 0 -20 4 -24 23 -21 13 2 23 11 25
24 3 22 -13 34 -35 27z"/>
<path d="M2677 1392 c-23 -25 -21 -78 3 -102 21 -21 70 -28 70 -10 0 6 7 10
15 10 34 0 47 76 17 103 -25 23 -85 22 -105 -1z m24 -35 c-10 -9 -11 -8 -5 6
3 10 9 15 12 12 3 -3 0 -11 -7 -18z"/>
<path d="M866 1368 c-43 -38 -54 -80 -32 -132 17 -40 77 -75 99 -58 7 5 23 13
37 16 19 6 21 5 10 -3 -9 -7 -10 -11 -3 -11 6 0 19 10 27 22 9 12 16 18 16 13
0 -6 7 3 15 19 19 35 19 57 1 101 -29 68 -112 85 -170 33z m149 -18 c3 -6 -1
-7 -9 -4 -18 7 -21 14 -7 14 6 0 13 -4 16 -10z m-146 -41 c-16 -10 -23 -4 -14
10 3 6 11 8 17 5 6 -4 5 -9 -3 -15z m148 -5 c-3 -3 -12 -4 -19 -1 -8 3 -5 6 6
6 11 1 17 -2 13 -5z m-102 -64 c3 -5 2 -10 -4 -10 -5 0 -13 5 -16 10 -3 6 -2
10 4 10 5 0 13 -4 16 -10z"/>
<path d="M2256 1374 c-20 -19 -20 -38 -1 -57 27 -27 75 -6 75 33 0 40 -44 54
-74 24z"/>
<path d="M4100 1377 c-13 -7 -27 -23 -30 -37 -8 -28 6 -64 21 -55 5 4 9 -1 9
-9 0 -17 12 -19 48 -10 14 4 21 12 18 20 -3 8 0 13 7 11 19 -3 21 52 3 59 -9
3 -13 10 -10 15 3 5 1 9 -5 9 -5 0 -15 2 -23 5 -7 3 -24 -1 -38 -8z m-10 -52
c0 -8 -4 -15 -10 -15 -5 0 -7 7 -4 15 4 8 8 15 10 15 2 0 4 -7 4 -15z"/>
<path d="M2073 1363 c-19 -7 -16 -31 6 -42 21 -12 31 -5 31 20 0 18 -18 29
-37 22z"/>
<path d="M3353 1353 c-21 -8 -15 -41 8 -48 28 -9 47 10 33 32 -12 19 -23 24
-41 16z"/>
<path d="M3932 1353 c-7 -3 -19 -18 -28 -35 -14 -28 -14 -31 3 -51 12 -14 13
-18 3 -12 -10 6 -9 2 3 -12 25 -28 81 -28 108 0 52 56 -15 140 -89 110z"/>
<path d="M2855 1329 c-38 -29 -46 -41 -40 -57 3 -7 0 -10 -5 -7 -6 4 -10 -9
-10 -32 0 -42 25 -87 42 -77 6 4 8 2 5 -3 -11 -17 19 -35 57 -35 50 0 73 10
95 41 54 76 16 172 -74 186 -33 6 -46 2 -70 -16z"/>
<path d="M3218 1339 c-31 -18 -41 -47 -27 -80 7 -19 17 -28 26 -25 8 3 11 1 8
-4 -3 -6 1 -10 9 -10 9 0 16 5 16 10 0 6 5 10 11 10 5 0 7 -4 4 -10 -10 -16
11 -12 25 5 6 8 8 20 4 26 -4 8 -3 9 4 5 12 -7 16 5 13 34 -3 20 -39 50 -60
50 -9 0 -24 -5 -33 -11z"/>
<path d="M3708 1343 c-10 -2 -18 -9 -18 -14 0 -6 6 -7 13 -3 7 4 9 3 4 -2 -5
-5 -13 -10 -18 -10 -5 -1 -11 -2 -13 -3 -8 -2 16 -61 25 -62 5 -1 15 -2 22 -3
45 -7 69 72 28 94 -11 5 -21 9 -23 9 -2 -1 -11 -3 -20 -6z"/>
<path d="M1091 1314 c-28 -35 -27 -53 2 -47 l22 4 -23 -13 c-23 -14 -23 -14
-3 -32 64 -58 163 32 101 94 -29 29 -74 26 -99 -6z m69 -54 c6 -11 8 -20 6
-20 -3 0 -10 9 -16 20 -6 11 -8 20 -6 20 3 0 10 -9 16 -20z m-20 -25 c0 -1 -9
-5 -19 -8 -13 -3 -18 -1 -14 9 4 10 33 10 33 -1z"/>
<path d="M1582 1324 c-34 -23 -27 -75 11 -88 31 -11 64 3 59 24 -1 7 3 8 9 4
9 -5 10 2 5 26 -10 51 -42 64 -84 34z"/>
<path d="M2175 1330 c4 -6 -1 -7 -10 -3 -36 13 -39 -49 -4 -68 41 -22 80 36
47 69 -14 14 -42 16 -33 2z"/>
<path d="M3826 1317 c-26 -19 -17 -52 14 -52 18 0 26 6 28 21 4 30 -20 47 -42
31z"/>
<path d="M3060 1301 c-5 -11 -10 -26 -10 -35 0 -20 28 -46 50 -46 22 0 50 26
50 46 0 21 -37 54 -60 54 -10 0 -24 -9 -30 -19z m37 -37 c-3 -3 -12 -4 -19 -1
-8 3 -5 6 6 6 11 1 17 -2 13 -5z"/>
<path d="M1410 1290 c-27 -27 -26 -100 2 -100 5 0 6 6 2 13 -4 7 -3 9 2 4 5
-5 9 -14 9 -20 0 -21 50 -19 78 3 35 28 38 81 5 104 -31 22 -74 20 -98 -4z
m33 -30 c-10 -11 -19 -20 -21 -20 -1 0 2 9 8 20 6 11 15 20 20 20 6 0 2 -9 -7
-20z"/>
<path d="M1812 1289 c-13 -5 -20 -13 -17 -19 4 -6 1 -9 -6 -8 -17 4 -39 -40
-39 -80 0 -46 33 -89 80 -103 79 -24 155 47 140 130 -13 75 -84 110 -158 80z
m75 -32 c1 -29 1 -30 -8 -9 -5 13 -7 28 -3 33 8 14 9 12 11 -24z m-37 -101 c0
-2 -8 -10 -17 -17 -16 -13 -17 -12 -4 4 13 16 21 21 21 13z m15 -66 c-3 -5
-11 -10 -16 -10 -6 0 -7 5 -4 10 3 6 11 10 16 10 6 0 7 -4 4 -10z"/>
<path d="M2010 1278 c-27 -29 -25 -62 6 -93 19 -19 31 -24 52 -19 42 10 52 23
52 65 0 63 -67 93 -110 47z"/>
<path d="M2248 1265 c-15 -9 -35 -29 -43 -45 -18 -35 -20 -85 -3 -74 7 5 8 3
3 -5 -9 -15 14 -63 27 -55 4 3 8 0 8 -6 0 -7 7 -9 16 -6 8 3 12 2 9 -4 -7 -11
5 -14 50 -11 69 4 116 74 96 143 -7 21 -23 45 -37 54 -34 23 -94 27 -126 9z"/>
<path d="M3403 1259 c-27 -10 -37 -42 -23 -69 6 -11 13 -20 16 -20 3 0 2 5 -1
10 -3 6 -1 10 4 10 6 0 11 -7 11 -15 0 -11 6 -12 22 -6 30 11 42 33 35 63 -8
29 -32 39 -64 27z"/>
<path d="M1684 1249 c-7 -12 15 -31 31 -26 6 2 11 11 13 20 4 19 -32 24 -44 6z"/>
<path d="M4053 1244 c-7 -3 -13 -16 -13 -30 0 -28 46 -46 61 -23 23 36 -8 69
-48 53z"/>
<path d="M2594 1226 c-8 -21 3 -36 27 -36 15 0 20 6 17 22 -4 27 -35 37 -44
14z"/>
<path d="M3634 1227 c-7 -20 3 -37 22 -37 18 0 18 24 -1 40 -12 10 -16 9 -21
-3z"/>
<path d="M3790 1220 c-6 -11 -8 -25 -5 -30 3 -6 1 -10 -5 -10 -8 0 -10 9 -6
26 10 38 -22 28 -52 -16 -29 -43 -23 -102 16 -142 21 -23 34 -28 73 -28 56 0
93 25 109 75 10 31 9 41 -10 81 -15 30 -27 43 -37 40 -8 -3 -12 -2 -9 3 3 5
-1 12 -10 15 -29 11 -53 6 -64 -14z m-30 -20 c0 -5 -5 -10 -11 -10 -5 0 -7 5
-4 10 3 6 8 10 11 10 2 0 4 -4 4 -10z m124 -139 c3 -5 -1 -11 -9 -14 -9 -4
-12 -1 -8 9 6 16 10 17 17 5z"/>
<path d="M2668 1194 c-23 -12 -28 -21 -28 -53 0 -42 19 -65 63 -76 32 -8 71
19 62 42 -2 8 0 11 5 8 6 -4 10 7 10 24 0 20 -8 36 -26 50 -31 25 -49 26 -86
5z"/>
<path d="M3096 1195 c-35 -19 -57 -46 -51 -62 2 -7 0 -13 -6 -13 -15 0 -5 -62
15 -92 36 -54 127 -62 174 -15 18 18 26 39 29 74 4 42 1 52 -24 80 -35 40 -93
52 -137 28z m54 -165 c0 -5 -2 -10 -4 -10 -3 0 -8 5 -11 10 -3 6 -1 10 4 10 6
0 11 -4 11 -10z"/>
<path d="M3282 1198 c-19 -19 -14 -38 11 -47 26 -10 47 3 47 29 0 27 -37 39
-58 18z"/>
<path d="M3517 1187 c-10 -6 -20 -28 -23 -48 -5 -29 -2 -40 17 -58 46 -43 119
-16 119 45 0 19 -5 34 -11 34 -5 0 -8 4 -4 9 15 25 -68 41 -98 18z"/>
<path d="M1561 1174 c-13 -9 -31 -35 -41 -57 -16 -36 -17 -43 -3 -75 8 -20 22
-42 32 -49 25 -19 84 -34 94 -24 5 5 15 7 21 5 23 -9 68 52 73 99 5 38 1 48
-24 77 -24 27 -38 33 -79 37 -36 3 -55 0 -73 -13z m142 -47 c3 -8 -1 -14 -8
-14 -7 0 -11 6 -8 14 3 7 6 13 8 13 2 0 5 -6 8 -13z"/>
<path d="M2472 1174 c-27 -19 -33 -101 -6 -90 8 3 12 2 9 -4 -3 -5 3 -14 14
-19 29 -16 80 5 87 36 8 31 -8 79 -24 76 -7 -2 -12 2 -12 7 0 15 -43 12 -68
-6z"/>
<path d="M3975 1180 c3 -5 0 -7 -8 -4 -9 3 -17 -3 -20 -16 -13 -49 28 -82 69
-55 29 18 31 46 6 68 -20 18 -57 24 -47 7z m44 -29 c6 -11 6 -22 -1 -32 -8
-12 -9 -11 -5 2 3 9 -2 27 -10 40 -9 12 -11 19 -5 15 7 -4 16 -15 21 -25z
m-39 -10 c0 -6 -5 -13 -12 -17 -6 -4 -8 -3 -4 4 3 5 0 13 -6 15 -8 3 -6 6 5 6
9 1 17 -3 17 -8z"/>
<path d="M1103 1173 c-18 -6 -16 -52 2 -59 23 -9 38 5 24 22 -10 12 -9 13 5 8
12 -5 15 -2 10 9 -6 18 -24 26 -41 20z"/>
<path d="M976 1129 c-30 -23 -33 -45 -10 -77 18 -26 51 -29 57 -4 4 15 5 15 6
-2 1 -18 2 -18 21 -1 54 48 -18 128 -74 84z m31 -85 c-3 -3 -12 -4 -19 -1 -8
3 -5 6 6 6 11 1 17 -2 13 -5z"/>
<path d="M1394 1143 c-35 -7 -56 -37 -52 -75 2 -20 8 -32 16 -30 6 1 11 -4 10
-10 -2 -7 5 -12 14 -12 10 1 15 -2 12 -7 -7 -12 10 -11 41 3 15 7 24 17 21 25
-3 7 1 13 9 13 24 0 18 48 -10 75 -13 14 -28 24 -32 24 -4 -1 -18 -4 -29 -6z
m35 -94 c-22 -13 -31 -11 -17 5 7 8 17 12 22 9 4 -3 2 -9 -5 -14z"/>
<path d="M2095 1140 c3 -5 0 -7 -9 -4 -9 3 -19 -3 -26 -16 -7 -13 -8 -20 -2
-17 5 4 7 -3 5 -16 -6 -31 18 -49 59 -45 72 7 70 108 -3 108 -17 0 -28 -4 -24
-10z"/>
<path d="M3350 1137 c-37 -19 -55 -61 -40 -97 15 -35 30 -49 61 -55 57 -12
109 44 95 100 -11 44 -75 72 -116 52z"/>
<path d="M1977 1107 c-8 -21 8 -39 29 -35 27 5 25 42 -2 46 -12 2 -24 -3 -27
-11z"/>
<path d="M2809 1079 c-14 -27 -11 -44 10 -63 39 -35 91 8 68 55 -15 29 -63 34
-78 8z"/>
<path d="M2941 1084 c-26 -19 -27 -40 -2 -54 34 -18 68 10 55 44 -9 22 -30 26
-53 10z m44 -13 c3 -5 2 -12 -3 -15 -5 -3 -9 1 -9 9 0 17 3 19 12 6z"/>
<path d="M3647 1083 c-12 -12 -7 -41 7 -46 19 -8 38 16 30 37 -6 16 -25 21
-37 9z"/>
<path d="M2590 1055 c-15 -18 -5 -35 20 -35 10 0 22 5 25 10 7 11 -12 40 -25
40 -4 0 -13 -7 -20 -15z"/>
<path d="M1780 1043 c-24 -17 -27 -65 -4 -87 20 -21 48 -21 40 -1 -3 8 -1 15
4 15 6 0 10 -4 10 -10 0 -19 21 -10 32 15 24 53 -34 101 -82 68z"/>
<path d="M1090 1018 c-17 -28 -18 -34 -5 -41 9 -4 13 -13 9 -18 -10 -17 17
-39 51 -39 39 0 71 30 52 49 -9 10 -8 11 7 5 17 -6 18 -4 12 22 -9 37 -32 54
-73 54 -27 0 -37 -6 -53 -32z m96 10 c4 -6 3 -8 -4 -4 -5 3 -13 0 -15 -6 -3
-8 -6 -6 -6 5 -1 19 14 23 25 5z m-69 -35 c-3 -10 -5 -4 -5 12 0 17 2 24 5 18
2 -7 2 -21 0 -30z"/>
<path d="M1920 1020 c-28 -28 -26 -74 5 -98 64 -51 140 36 85 96 -26 27 -64
28 -90 2z"/>
<path d="M2180 1033 c-27 -11 -42 -33 -37 -53 3 -13 1 -18 -5 -14 -18 11 1
-49 22 -70 52 -53 149 -1 135 72 -3 19 -13 41 -21 49 -16 16 -71 26 -94 16z"/>
<path d="M2328 1015 c-17 -38 3 -75 41 -75 34 0 49 16 49 53 -1 49 -70 66 -90
22z"/>
<path d="M3547 1026 c-16 -12 -32 -50 -18 -42 5 4 7 -3 4 -14 -3 -12 1 -22 11
-26 26 -10 63 4 69 27 11 41 -36 80 -66 55z"/>
<path d="M1260 1010 c0 -11 7 -20 16 -20 8 0 12 4 9 10 -3 6 1 7 9 4 11 -4 16
0 16 10 0 10 -9 16 -25 16 -18 0 -25 -5 -25 -20z"/>
<path d="M2635 995 c-28 -28 -35 -43 -35 -74 0 -48 37 -106 68 -105 11 0 19
-3 16 -8 -10 -15 51 -8 86 11 22 11 39 30 46 50 13 39 3 107 -15 103 -7 -1
-10 2 -7 7 11 17 -45 51 -85 51 -31 0 -46 -7 -74 -35z m95 0 c0 -2 -6 -5 -13
-8 -8 -3 -14 1 -14 8 0 7 6 11 14 8 7 -3 13 -6 13 -8z m5 -56 c-5 -15 -4 -19
4 -15 6 4 11 3 11 -3 0 -5 -4 -12 -9 -15 -12 -8 -22 20 -15 39 9 23 16 18 9
-6z"/>
<path d="M2455 986 c-13 -13 -22 -32 -20 -42 2 -11 4 -23 4 -28 1 -4 8 -5 17
-2 14 5 15 4 5 -8 -10 -12 -8 -17 9 -26 28 -15 83 -3 76 16 -3 8 -1 12 4 9 15
-10 23 41 9 67 -24 45 -67 51 -104 14z"/>
<path d="M3676 1001 c-4 -6 -11 -9 -16 -6 -15 10 -19 -25 -4 -40 20 -20 31
-19 43 4 12 22 -11 63 -23 42z"/>
<path d="M2063 989 c-13 -13 -6 -39 9 -39 5 0 7 10 4 23 -3 12 -3 16 0 9 3 -6
10 -10 15 -7 5 4 6 -1 3 -9 -3 -9 -1 -16 5 -16 17 0 13 37 -5 44 -20 8 -18 8
-31 -5z"/>
<path d="M2922 980 c-20 -12 -30 -25 -26 -32 4 -7 3 -8 -4 -4 -14 8 -32 -32
-32 -68 0 -28 42 -92 58 -89 7 2 12 -2 12 -7 0 -14 76 -13 103 2 77 40 71 169
-9 203 -48 20 -62 19 -102 -5z"/>
<path d="M1336 975 c-3 -8 -11 -15 -18 -15 -9 0 -8 3 2 10 8 5 11 10 5 10 -15
0 -51 -32 -64 -57 -31 -61 13 -162 66 -148 18 4 23 2 17 -6 -16 -27 69 0 96
30 26 28 50 99 30 86 -5 -3 -7 1 -4 9 8 21 -13 54 -49 76 -38 24 -73 26 -81 5z
m72 -69 c-7 -8 -17 -12 -22 -9 -4 3 -2 9 5 14 22 13 31 11 17 -5z m15 -37 c-9
-9 -12 -7 -10 9 1 14 5 18 11 12 7 -7 6 -14 -1 -21z m27 -3 c0 -2 -8 -10 -17
-17 -16 -13 -17 -12 -4 4 13 16 21 21 21 13z m-137 -41 c-3 -9 -8 -14 -10 -11
-3 3 -2 9 2 15 9 16 15 13 8 -4z m112 -35 c-3 -5 -14 -10 -23 -9 -14 0 -13 2
3 9 27 11 27 11 20 0z"/>
<path d="M1477 983 c-16 -15 -6 -33 18 -33 18 0 25 5 25 20 0 20 -28 28 -43
13z"/>
<path d="M3748 979 c-11 -6 -18 -22 -18 -40 0 -22 6 -32 26 -39 31 -12 37 -12
30 -1 -3 5 2 8 12 7 25 -2 30 54 6 71 -21 15 -33 16 -56 2z"/>
<path d="M3203 968 c-22 -28 -26 -41 -12 -33 11 7 12 6 2 -6 -9 -11 -9 -20 0
-39 18 -36 80 -41 101 -8 17 25 14 61 -5 84 -14 17 -73 18 -86 2z"/>
<path d="M3400 959 c-46 -19 -64 -48 -64 -107 0 -47 3 -58 27 -78 54 -46 109
-44 160 7 27 27 29 35 25 80 -4 36 -12 57 -29 74 -28 27 -83 38 -119 24z m115
-139 c3 -5 1 -10 -4 -10 -6 0 -11 5 -11 10 0 6 2 10 4 10 3 0 8 -4 11 -10z"/>
<path d="M1681 951 c-8 -5 -10 -14 -6 -21 5 -9 4 -11 -3 -6 -18 11 -15 -20 4
-38 17 -17 59 -22 49 -6 -3 6 1 7 9 4 12 -5 16 0 14 22 -3 49 -31 68 -67 45z
m33 -33 c-3 -4 -9 -8 -15 -8 -5 0 -9 4 -9 8 0 5 7 9 15 9 8 0 12 -4 9 -9z"/>
<path d="M3120 921 c0 -15 6 -21 21 -21 25 0 22 33 -4 38 -12 2 -17 -3 -17
-17z"/>
<path d="M1563 923 c3 -5 -4 -9 -15 -9 -13 1 -28 -9 -36 -25 -32 -56 38 -121
96 -88 21 11 28 23 30 55 2 25 -2 45 -10 52 -18 14 -73 28 -65 15z m67 -33 c0
-5 -5 -10 -11 -10 -5 0 -7 5 -4 10 3 6 8 10 11 10 2 0 4 -4 4 -10z m-45 -18
c-3 -3 -11 0 -18 7 -9 10 -8 11 6 5 10 -3 15 -9 12 -12z m-40 -12 c-3 -5 -12
-7 -20 -3 -21 7 -19 13 6 13 11 0 18 -4 14 -10z"/>
<path d="M1796 899 c-19 -15 -26 -30 -26 -53 0 -35 31 -73 49 -61 6 3 11 2 11
-4 0 -20 57 10 69 36 16 36 5 65 -22 59 -12 -3 -16 -3 -9 0 17 8 15 31 -4 38
-26 10 -40 7 -68 -15z"/>
<path d="M3622 904 c-13 -9 -21 -22 -18 -29 2 -7 0 -17 -6 -23 -15 -15 15 -60
46 -68 26 -6 70 12 61 26 -3 4 0 10 6 12 22 7 1 74 -27 86 -32 15 -35 15 -62
-4z m32 -29 c-4 -8 -11 -12 -16 -9 -6 4 -5 10 3 15 19 12 19 11 13 -6z"/>
<path d="M2342 899 c-48 -18 -47 -107 2 -110 53 -3 76 15 76 62 0 40 -37 63
-78 48z m43 -78 c-8 -14 -25 -14 -25 0 0 5 5 7 10 4 6 -3 10 -1 10 6 0 7 3 10
6 6 3 -3 3 -10 -1 -16z"/>
<path d="M2002 873 c-39 -19 -62 -59 -62 -105 0 -40 21 -73 60 -93 34 -18 94
-21 70 -4 -12 8 -10 9 8 4 29 -8 76 20 68 41 -3 8 -2 13 3 10 13 -8 22 37 15
72 -8 38 -57 87 -78 79 -9 -4 -16 -2 -16 3 0 15 -31 12 -68 -7z m43 -33 c3 -5
2 -10 -4 -10 -5 0 -13 5 -16 10 -3 6 -2 10 4 10 5 0 13 -4 16 -10z m-29 -65
c-3 -8 0 -15 6 -15 6 0 9 -3 5 -6 -10 -11 -26 6 -20 21 3 8 7 15 10 15 3 0 3
-7 -1 -15z"/>
<path d="M2195 830 c-9 -10 -15 -26 -12 -34 16 -42 87 -36 87 7 0 46 -43 62
-75 27z"/>
<path d="M2500 825 c-10 -12 -10 -21 -2 -40 23 -50 94 -17 77 35 -8 24 -57 27
-75 5z m7 -27 c-3 -8 -6 -5 -6 6 -1 11 2 17 5 13 3 -3 4 -12 1 -19z"/>
<path d="M1661 808 c-12 -33 4 -58 38 -58 19 0 31 7 38 23 12 25 1 57 -19 57
-7 0 -6 -6 2 -15 11 -13 10 -14 -4 -9 -9 3 -16 10 -16 15 0 19 -31 8 -39 -13z"/>
<path d="M3111 816 c-5 -6 -12 -23 -16 -37 -15 -59 68 -97 107 -49 22 27 23
49 3 77 -16 23 -77 30 -94 9z"/>
<path d="M3244 816 c-16 -43 15 -69 51 -42 16 12 18 18 9 33 -14 23 -52 29
-60 9z"/>
<path d="M3552 778 c-7 -7 -12 -23 -12 -36 0 -20 4 -23 28 -20 19 2 28 9 30
25 4 27 -29 48 -46 31z"/>
<path d="M2629 764 c-11 -14 -10 -19 9 -35 13 -10 30 -15 37 -12 20 7 19 49
-1 57 -24 9 -30 8 -45 -10z"/>
<path d="M2742 768 c-19 -19 -14 -73 8 -93 16 -15 26 -17 48 -9 65 23 56 114
-11 114 -18 0 -38 -5 -45 -12z"/>
<path d="M1453 752 c-26 -42 36 -94 67 -57 11 14 11 20 1 37 -9 15 -9 18 0 13
7 -5 10 -3 7 6 -7 22 -61 23 -75 1z"/>
<path d="M2376 748 c-21 -30 -20 -54 4 -78 39 -39 100 -14 100 42 0 53 -74 79
-104 36z m89 -7 c3 -5 2 -12 -3 -15 -5 -3 -9 1 -9 9 0 17 3 19 12 6z m-37 -25
c-7 -8 -15 -12 -17 -11 -5 6 10 25 20 25 5 0 4 -6 -3 -14z"/>
<path d="M1840 727 c-7 -17 -9 -18 -9 -4 -1 29 -37 19 -70 -19 -27 -30 -30
-38 -19 -52 10 -12 10 -14 1 -8 -18 10 -17 -28 2 -64 8 -16 25 -36 37 -44 25
-18 103 -22 93 -6 -3 5 0 7 7 5 18 -7 61 33 52 47 -4 7 -2 8 4 4 8 -5 13 1 14
16 5 77 -17 117 -74 137 -25 9 -30 8 -38 -12z m62 -76 c2 -17 1 -28 -4 -25 -8
5 -12 54 -4 54 2 0 6 -13 8 -29z m-34 7 c-6 -18 -28 -21 -28 -4 0 9 7 16 16
16 9 0 14 -5 12 -12z m-28 -54 c0 -8 -19 -13 -24 -6 -3 5 1 9 9 9 8 0 15 -2
15 -3z m-6 -35 c-4 -8 1 -9 17 -5 20 6 21 5 6 -4 -19 -12 -41 -4 -32 11 4 5 8
9 11 9 3 0 2 -5 -2 -11z"/>
<path d="M1570 713 c-24 -31 -22 -74 7 -105 21 -24 84 -24 106 0 18 20 30 82
16 82 -6 0 -8 4 -4 9 9 15 -36 41 -71 41 -24 0 -39 -8 -54 -27z m90 -27 c0 -2
-8 -10 -17 -17 -16 -13 -17 -12 -4 4 13 16 21 21 21 13z m-43 -12 c-3 -3 -12
-4 -19 -1 -8 3 -5 6 6 6 11 1 17 -2 13 -5z m-14 -59 c-7 -21 -13 -19 -13 6 0
11 4 18 10 14 5 -3 7 -12 3 -20z"/>
<path d="M2993 728 c-19 -24 -20 -43 -3 -58 12 -12 13 -13 0 -5 -13 9 -13 8
-1 -7 16 -21 39 -22 64 -4 24 18 21 52 -5 70 -27 19 -42 20 -55 4z"/>
<path d="M3255 715 c-60 -59 0 -161 79 -135 48 16 72 68 50 112 -27 53 -89 64
-129 23z m93 -10 c-3 -3 -9 2 -12 12 -6 14 -5 15 5 6 7 -7 10 -15 7 -18z m-35
-110 c-3 -9 -8 -14 -10 -11 -3 3 -2 9 2 15 9 16 15 13 8 -4z"/>
<path d="M2525 706 c-15 -22 -15 -27 0 -55 11 -22 23 -31 40 -31 52 0 75 65
33 94 -32 23 -55 20 -73 -8z m59 -37 c-7 -12 -44 -12 -44 0 0 5 6 11 13 14 17
6 38 -3 31 -14z"/>
<path d="M2883 724 c-15 -6 -17 -42 -4 -62 11 -18 51 -11 65 11 20 32 -22 67
-61 51z"/>
<path d="M2208 703 c-20 -23 -35 -68 -19 -59 7 5 9 1 5 -9 -16 -41 71 -60 106
-23 22 24 27 43 8 32 -10 -6 -10 -4 0 7 17 18 15 25 -10 49 -27 25 -70 26 -90
3z m32 -3 c0 -5 -2 -10 -4 -10 -3 0 -8 5 -11 10 -3 6 -1 10 4 10 6 0 11 -4 11
-10z m31 -13 c-6 -8 -8 -16 -5 -19 3 -3 0 -9 -7 -14 -8 -4 -10 -3 -5 4 4 7 2
12 -5 12 -7 0 -4 7 7 15 24 18 30 19 15 2z m14 -77 c-3 -5 -12 -10 -18 -10 -7
0 -6 4 3 10 19 12 23 12 15 0z"/>
<path d="M3425 700 c-9 -14 23 -62 37 -58 19 7 32 34 25 52 -7 18 -52 22 -62
6z"/>
<path d="M3092 643 c-12 -10 -24 -30 -28 -45 -5 -23 0 -33 27 -59 18 -17 35
-26 37 -21 2 6 10 8 19 5 12 -5 14 -3 8 7 -6 10 -4 12 8 7 23 -9 51 35 43 65
-10 38 -22 50 -58 54 -24 4 -41 0 -56 -13z m108 -53 c0 -5 -5 -10 -11 -10 -5
0 -7 5 -4 10 3 6 8 10 11 10 2 0 4 -4 4 -10z"/>
<path d="M2120 630 c0 -25 19 -36 33 -20 9 10 9 11 -3 5 -13 -8 -13 -7 -1 8 7
9 12 17 10 18 -35 7 -39 6 -39 -11z"/>
<path d="M2695 632 c-36 -8 -71 -40 -82 -76 -6 -20 -7 -36 -2 -36 4 0 6 -6 3
-14 -10 -27 41 -96 72 -96 7 0 18 8 24 18 11 16 11 16 6 0 -7 -24 26 -24 65
-1 27 16 54 67 44 83 -3 5 -1 11 4 14 14 9 -11 66 -35 83 -29 18 -74 30 -99
25z m35 -102 c0 -5 -2 -10 -4 -10 -3 0 -8 5 -11 10 -3 6 -1 10 4 10 6 0 11 -4
11 -10z m-20 -42 c0 -4 -4 -8 -9 -8 -6 0 -12 4 -15 8 -3 5 1 9 9 9 8 0 15 -4
15 -9z m97 -10 c-3 -8 -6 -5 -6 6 -1 11 2 17 5 13 3 -3 4 -12 1 -19z m-12 -18
c3 -6 -1 -7 -9 -4 -18 7 -21 14 -7 14 6 0 13 -4 16 -10z"/>
<path d="M2010 608 c0 -6 -3 -8 -7 -5 -13 13 -33 -16 -33 -49 0 -54 54 -88
102 -63 29 15 38 28 38 56 0 27 -19 40 -31 22 -7 -11 -9 -10 -9 4 0 9 8 17 18
17 15 1 15 2 -2 15 -24 18 -76 20 -76 3z m80 -87 c-6 -12 -20 -21 -31 -21 -11
0 -18 4 -14 10 3 5 12 7 19 4 9 -3 17 3 21 16 4 12 9 19 12 17 2 -3 0 -15 -7
-26z m-95 9 c3 -5 1 -10 -4 -10 -6 0 -11 5 -11 10 0 6 2 10 4 10 3 0 8 -4 11
-10z m30 -30 c3 -6 -1 -7 -9 -4 -18 7 -21 14 -7 14 6 0 13 -4 16 -10z"/>
<path d="M2377 609 c-9 -6 -15 -15 -11 -20 3 -5 0 -8 -7 -7 -17 4 -43 -67 -34
-89 5 -10 9 -24 11 -31 5 -24 14 -26 29 -6 17 22 20 12 5 -17 -9 -16 -7 -21
15 -29 78 -30 152 10 162 87 5 36 1 48 -22 79 -18 24 -30 32 -35 24 -5 -8 -9
-7 -13 4 -7 18 -71 22 -100 5z m29 -32 c-14 -15 -26 -23 -26 -18 0 11 41 53
47 48 2 -3 -7 -16 -21 -30z m59 -7 c3 -5 1 -10 -4 -10 -6 0 -11 5 -11 10 0 6
2 10 4 10 3 0 8 -4 11 -10z m-100 -30 c3 -5 1 -10 -4 -10 -6 0 -11 5 -11 10 0
6 2 10 4 10 3 0 8 -4 11 -10z m89 -15 c-4 -8 -8 -15 -10 -15 -2 0 -4 7 -4 15
0 8 4 15 10 15 5 0 7 -7 4 -15z m83 -7 c-3 -8 -6 -5 -6 6 -1 11 2 17 5 13 3
-3 4 -12 1 -19z m-167 -24 c0 -2 -7 -4 -15 -4 -8 0 -15 4 -15 10 0 5 7 7 15 4
8 -4 15 -8 15 -10z m117 10 c-3 -3 -12 -4 -19 -1 -8 3 -5 6 6 6 11 1 17 -2 13
-5z m-77 -49 c10 -12 10 -15 -4 -15 -9 0 -16 7 -16 15 0 8 2 15 4 15 2 0 9 -7
16 -15z m63 0 c-3 -9 -8 -14 -10 -11 -3 3 -2 9 2 15 9 16 15 13 8 -4z"/>
<path d="M2881 574 c-12 -15 -21 -39 -21 -53 0 -31 27 -74 41 -66 5 4 9 1 9
-4 0 -6 15 -11 33 -11 64 0 99 74 61 128 -9 14 -22 21 -31 18 -8 -3 -11 -1 -8
4 4 6 -8 10 -29 10 -25 0 -40 -7 -55 -26z m14 -54 c-3 -5 -1 -10 4 -10 6 0 11
-7 11 -16 0 -9 5 -12 12 -8 7 5 8 3 3 -6 -6 -10 -12 -7 -26 11 -15 21 -17 39
-3 39 3 0 2 -4 -1 -10z m85 -34 c0 -3 -4 -8 -10 -11 -5 -3 -10 -1 -10 4 0 6 5
11 10 11 6 0 10 -2 10 -4z"/>
<path d="M2161 531 c-27 -38 -26 -62 2 -89 27 -26 79 -29 97 -7 7 8 9 15 4 15
-5 0 -1 5 9 11 24 14 21 41 -8 73 -34 36 -77 35 -104 -3z m96 -23 c2 -18 0
-20 -7 -8 -8 12 -10 13 -10 1 0 -8 -3 -11 -6 -8 -4 4 -1 13 6 22 16 19 15 19
17 -7z m-42 -27 c-2 -1 -13 4 -25 12 -15 10 -18 16 -8 19 12 4 41 -22 33 -31z
m-38 -7 c-3 -3 -12 -4 -19 -1 -8 3 -5 6 6 6 11 1 17 -2 13 -5z m26 -24 c3 -13
0 -20 -8 -20 -11 0 -13 14 -6 38 3 8 9 -1 14 -18z"/>
<path d="M1913 504 c-8 -22 4 -44 26 -44 19 0 35 25 26 40 -10 15 -46 19 -52
4z m27 -18 c0 -3 -4 -8 -10 -11 -5 -3 -10 -1 -10 4 0 6 5 11 10 11 6 0 10 -2
10 -4z"/>
<path d="M2574 441 c5 -7 1 -8 -9 -4 -13 4 -16 1 -13 -17 4 -31 35 -50 48 -30
15 23 7 54 -14 58 -11 3 -16 0 -12 -7z m20 -29 c3 -5 -1 -9 -9 -9 -8 0 -12 4
-9 9 3 4 7 8 9 8 2 0 6 -4 9 -8z"/>
</g>
</svg>
